<?xml version="1.0" encoding="utf-8"?>
<!-- Generator: Adobe Illustrator 21.1.0, SVG Export Plug-In . SVG Version: 6.00 Build 0)  -->
<svg version="1.1" id="Capa_1" xmlns="http://www.w3.org/2000/svg" xmlns:xlink="http://www.w3.org/1999/xlink" x="0px" y="0px"
	 viewBox="0 0 180 109" style="enable-background:new 0 0 180 109;" xml:space="preserve">
<style type="text/css">
	.st0{fill:#D8D8D8;}
	.st1{fill:#101010;}
	.st2{fill:#FF483F;}
	.st3{fill:#ECBB38;}
	.st4{fill:#36D3A8;}
	.st5{fill:#E72B5F;}
	.st6{font-family:'Futura-Medium';}
	.st7{font-size:12px;}
	.st8{font-family:'Futura-MediumItalic';}
</style>
<g>
	<g>
		<path id="Rectangle-5" class="st0" d="M10,2h160c3.3,0,6,2.7,6,6v88c0,3.3-2.7,6-6,6H10c-3.3,0-6-2.7-6-6V8C4,4.7,6.7,2,10,2z"/>
		<path id="Rectangle-6" class="st1" d="M4,15.2h172V96c0,3.3-2.7,6-6,6H10c-3.3,0-6-2.7-6-6V15.2z"/>
		<g id="dots" transform="translate(4.467532, 4.411765)">
			<g id="red">
				<g>
					<ellipse id="path-2" class="st2" cx="7" cy="4.9" rx="3" ry="2.9"/>
				</g>
			</g>
			<g id="yellow">
				<g>
					<ellipse id="path-4" class="st3" cx="15.9" cy="4.9" rx="3" ry="2.9"/>
				</g>
			</g>
			<g id="green">
				<g>
					<ellipse id="path-6" class="st4" cx="24.8" cy="4.9" rx="3" ry="2.9"/>
				</g>
			</g>
		</g>
	</g>
	<path id="Rectangle" class="st0" d="M47,7h70c1.1,0,2,0.9,2,2l0,0c0,1.1-0.9,2-2,2H47c-1.1,0-2-0.9-2-2l0,0C45,7.9,45.9,7,47,7z"/>
	<path id="Rectangle-Copy" class="st5" d="M13,34h42c1.1,0,2,0.9,2,2l0,0c0,1.1-0.9,2-2,2H13c-1.1,0-2-0.9-2-2l0,0
		C11,34.9,11.9,34,13,34z"/>
	<path id="Rectangle-Copy-10" class="st5" d="M64,34h42c1.1,0,2,0.9,2,2l0,0c0,1.1-0.9,2-2,2H64c-1.1,0-2-0.9-2-2l0,0
		C62,34.9,62.9,34,64,34z"/>
	<path id="Rectangle-Copy-8" class="st5" d="M13,79h42c1.1,0,2,0.9,2,2l0,0c0,1.1-0.9,2-2,2H13c-1.1,0-2-0.9-2-2l0,0
		C11,79.9,11.9,79,13,79z"/>
	<path id="Rectangle-Copy-4" class="st0" d="M13,56h42c1.1,0,2,0.9,2,2l0,0c0,1.1-0.9,2-2,2H13c-1.1,0-2-0.9-2-2l0,0
		C11,56.9,11.9,56,13,56z"/>
	<path id="Rectangle-Copy-5" class="st0" d="M64,56h42c1.1,0,2,0.9,2,2l0,0c0,1.1-0.9,2-2,2H64c-1.1,0-2-0.9-2-2l0,0
		C62,56.9,62.9,56,64,56z"/>
	<path id="Rectangle-Copy-9" class="st0" d="M115,56h42c1.1,0,2,0.9,2,2l0,0c0,1.1-0.9,2-2,2h-42c-1.1,0-2-0.9-2-2l0,0
		C113,56.9,113.9,56,115,56z"/>
	<text transform="matrix(1 0 0 1 10.8916 29.9998)" class="st0 st6 st7">&lt;Aplicaciones innovadoras/&gt;</text>
	<text transform="matrix(1 0 0 1 11.8916 94.4286)" class="st0 st6 st7">&gt;</text>
	<text transform="matrix(1 0 0 1 11.8916 52.4905)" class="st0 st8 st7">&lt;Websites modernos/&gt;</text>
	<text transform="matrix(1 0 0 1 11.8916 74.7156)"><tspan x="0" y="0" class="st0 st8 st7">&lt;</tspan><tspan x="7.4" y="0" class="st0 st6 st7">Sistemas inteligentes</tspan><tspan x="118.1" y="0" class="st0 st8 st7">/&gt;</tspan></text>
</g>
<text transform="matrix(1 0 0 1 309.8916 193.9998)" class="st0 st7" style="font-family:'PoetsenOne-Regular';">&lt;Aplicaciones hermosas/&gt;</text>
<text transform="matrix(1 0 0 1 309.8916 193.9998)" class="st0 st7" style="font-family:'PoetsenOne-Regular';">&lt;Aplicaciones hermosas/&gt;</text>
</svg>
