<?xml version="1.0" encoding="utf-8"?>
<!-- Generator: Adobe Illustrator 21.1.0, SVG Export Plug-In . SVG Version: 6.00 Build 0)  -->
<svg version="1.1" id="Capa_1" xmlns="http://www.w3.org/2000/svg" xmlns:xlink="http://www.w3.org/1999/xlink" x="0px" y="0px"
	 viewBox="0 0 328 193" style="enable-background:new 0 0 328 193;" xml:space="preserve">
<style type="text/css">
	.st0{fill:#D8D8D8;}
	.st1{fill:#FFFFFF;}
	.st2{fill:#FF483F;}
	.st3{fill:#ECBB38;}
	.st4{fill:#36D3A8;}
	.st5{fill:#DAE9FF;}
	.st6{fill:#F0F0F0;}
	.st7{fill:#D6FFB9;}
	.st8{fill:#B9B9B9;}
	.st9{font-family:'HelveticaNeue-Bold';}
	.st10{font-size:10px;}
	.st11{font-family:'MontserratAlternates-SemiBold';}
	.st12{font-size:14.5224px;}
</style>
<desc>Created with Sketch.</desc>
<path id="Rectangle-5" class="st0" d="M8,0h312c4.4,0,8,3.6,8,8v177c0,4.4-3.6,8-8,8H8c-4.4,0-8-3.6-8-8V8C0,3.6,3.6,0,8,0z"/>
<path id="Rectangle-6" class="st1" d="M0,25.5h328V185c0,4.4-3.6,8-8,8H8c-4.4,0-8-3.6-8-8V25.5z"/>
<g id="dots" transform="translate(8.519481, 8.514706)">
	<ellipse id="red" class="st2" cx="5.7" cy="5.7" rx="5.7" ry="5.7"/>
	<ellipse id="yellow" class="st3" cx="22.7" cy="5.7" rx="5.7" ry="5.7"/>
	<ellipse id="green" class="st4" cx="39.8" cy="5.7" rx="5.7" ry="5.7"/>
</g>
<path id="Rectangle-10" class="st5" d="M245,99.4h67c2.2,0,4,1.8,4,4v3.3c0,2.2-1.8,4-4,4h-67c-2.2,0-4-1.8-4-4v-3.3
	C241,101.2,242.8,99.4,245,99.4z"/>
<path id="Rectangle-10-Copy-5" class="st6" d="M245,116.6h67c2.2,0,4,1.8,4,4v3.3c0,2.2-1.8,4-4,4h-67c-2.2,0-4-1.8-4-4v-3.3
	C241,118.3,242.8,116.6,245,116.6z"/>
<path id="Rectangle-10-Copy-4" class="st6" d="M245,133.7h67c2.2,0,4,1.8,4,4v3.3c0,2.2-1.8,4-4,4h-67c-2.2,0-4-1.8-4-4v-3.3
	C241,135.5,242.8,133.7,245,133.7z"/>
<path id="Rectangle-10-Copy-3" class="st6" d="M245,35h67c2.2,0,4,1.8,4,4v50.6c0,2.2-1.8,4-4,4h-67c-2.2,0-4-1.8-4-4V39
	C241,36.8,242.8,35,245,35z"/>
<path id="Rectangle-10-Copy" class="st6" d="M21.1,56.8h152.3c5,0,9.1,4.1,9.1,9.1v7.5c0,5-4.1,9.1-9.1,9.1H21.1
	c-5,0-9.1-4.1-9.1-9.1v-7.5C12,60.9,16.1,56.8,21.1,56.8z"/>
<path id="Rectangle-10-Copy-2" class="st6" d="M16,156.5h67c2.2,0,4,1.8,4,4v3.3c0,2.2-1.8,4-4,4H16c-2.2,0-4-1.8-4-4v-3.3
	C12,158.3,13.8,156.5,16,156.5z"/>
<path id="Rectangle-10-Copy-6" class="st6" d="M16,172h4c2.2,0,4,1.8,4,4v3.3c0,2.2-1.8,4-4,4h-4c-2.2,0-4-1.8-4-4V176
	C12,173.8,13.8,172,16,172z"/>
<path id="Rectangle-10-Copy-8" class="st6" d="M16,35h4c2.2,0,4,1.8,4,4v3.3c0,2.2-1.8,4-4,4h-4c-2.2,0-4-1.8-4-4V39
	C12,36.8,13.8,35,16,35z"/>
<path id="Rectangle-10-Copy-9" class="st6" d="M34,35h29c2.2,0,4,1.8,4,4v3.3c0,2.2-1.8,4-4,4H34c-2.2,0-4-1.8-4-4V39
	C30,36.8,31.8,35,34,35z"/>
<path id="Rectangle-10-Copy-10" class="st6" d="M78,35h29c2.2,0,4,1.8,4,4v3.3c0,2.2-1.8,4-4,4H78c-2.2,0-4-1.8-4-4V39
	C74,36.8,75.8,35,78,35z"/>
<path id="Rectangle-10-Copy-7" class="st7" d="M308,171.7h4c2.2,0,4,1.8,4,4v3.3c0,2.2-1.8,4-4,4h-4c-2.2,0-4-1.8-4-4v-3.3
	C304,173.5,305.8,171.7,308,171.7z"/>
<text transform="matrix(1 0 0 1 15 43)" class="st8 st9 st10">+</text>
<g>
	<text transform="matrix(1 0 0 1 45.0479 73.7322)" class="st8 st11 st12">Contáctanos</text>
</g>
</svg>
