<?xml version="1.0" encoding="utf-8"?>
<!-- Generator: Adobe Illustrator 21.1.0, SVG Export Plug-In . SVG Version: 6.00 Build 0)  -->
<svg version="1.1" id="Layer_1" xmlns="http://www.w3.org/2000/svg" xmlns:xlink="http://www.w3.org/1999/xlink" x="0px" y="0px"
	 viewBox="0 0 1004 512" style="enable-background:new 0 0 1004 512;" xml:space="preserve">
<style type="text/css">
	.st0{fill:#595454;}
	.st1{fill:#454040;}
	.st2{fill:#FFF4F4;}
	.st3{fill:#BEE75E;}
	.st4{fill:#4FC3C9;}
	.st5{fill:#49B4BF;}
	.st6{fill:#F6EFEA;}
	.st7{fill:#00CB75;}
</style>
<path class="st0" d="M785,407.9h55v84h-55V407.9z"/>
<path class="st1" d="M812.5,407.9H840v84h-27.5V407.9z"/>
<g>
	<path class="st2" d="M897,511.9H415c-6,0-11.4-3.6-13.8-9c-2.4-5.5-1.3-11.9,2.8-16.2c23.3-24.8,61.2-39.6,101.3-39.6
		c20.2,0,39.9,3.6,57.5,10.6c23.3-20,57.2-31.7,93.2-31.7c35.9,0,69.9,11.7,93.2,31.7c17.6-6.9,37.3-10.6,57.5-10.6
		c40.1,0,77.9,14.8,101.1,39.6c4.1,4.4,5.2,10.7,2.8,16.2C908.4,508.4,903,511.9,897,511.9z"/>
</g>
<g>
	<path class="st3" d="M897,416.6H728.1c-5.2,0-10-2.7-12.8-7.1c-2.7-4.4-3-10-0.6-14.6l34.6-68.7h-5.6c-5.4,0-10.3-2.9-13-7.5
		c-2.7-4.6-2.7-10.4,0-15h163.7c2.7,4.6,2.7,10.4,0,15c-2.7,4.6-7.6,7.5-13,7.5h-5.6l34.6,68.7c2.3,4.6,2.1,10.2-0.6,14.6
		C907,413.9,902.2,416.6,897,416.6L897,416.6z"/>
</g>
<g>
	<g>
		<path class="st4" d="M25.2,502.1c-5.9,0-11.5-2.3-14.9-6.2c-3.7-4.2-4.3-9.6-1.7-14.3l162.3-296.4l202.9-0.8l145.1,271.6
			c2.3,4.4,1.9,9.4-1.2,13.4c-3.1,4.1-8.4,6.7-14.3,7L26.4,502C26,502,25.6,502.1,25.2,502.1z"/>
	</g>
	<path class="st5" d="M518.8,455.9L373.7,184.3l-100.1,0.4v304l229.7-12.4c5.9-0.3,11.2-2.9,14.3-7
		C520.7,465.3,521.2,460.3,518.8,455.9L518.8,455.9z"/>
	<path class="st2" d="M290.2,28.1c-2.9-5.4-9.4-8.8-16.6-8.9c0,0-0.1,0-0.1,0c-7.2,0-13.7,3.4-16.7,8.7l-88.6,161.9l17.2,9.5
		c10.3,5.6,22,8.5,33.8,8.5c11.8,0,23.5-2.8,33.8-8.5l7.3-4c8.3-4.6,18.2-4.6,26.5,0l7.3,4c20.5,11.3,47.1,11.3,67.6,0l15.6-8.6
		L290.2,28.1z"/>
	<path class="st6" d="M290.2,28.1c-2.9-5.4-9.4-8.8-16.6-8.9v172.7c4.5,0,9,1.2,13.1,3.4l7.3,4c20.5,11.3,47.1,11.3,67.6,0l15.6-8.6
		L290.2,28.1z"/>
</g>
<path class="st7" d="M910.4,394.8l-34.6-68.7h5.6c5.4,0,10.3-2.9,13-7.5c2.7-4.6,2.7-10.4,0-15h-81.8v113H897c5.2,0,10-2.7,12.8-7.1
	C912.5,405,912.7,399.5,910.4,394.8L910.4,394.8z"/>
<path class="st6" d="M907.9,486.7c-23.2-24.8-61.1-39.6-101.1-39.6c-20.2,0-39.9,3.6-57.5,10.6c-23.3-20-57.2-31.6-93.1-31.7v86H897
	c6,0,11.4-3.5,13.8-9C913.1,497.4,912,491,907.9,486.7L907.9,486.7z"/>
<path class="st2" d="M875.8,326.1h5.6c5.4,0,10.3-2.9,13-7.5c2.7-4.6,2.7-10.4,0-15l-68.8-119.2c-2.7-4.6-7.6-7.5-13-7.5
	s-10.3,2.9-13,7.5l-68.9,119.2c-2.7,4.6-2.7,10.4,0,15c2.7,4.6,7.6,7.5,13,7.5h5.6c0,0,4.5,7.9,12,9.2c8.9,1.6,18-2.3,26.6-4.6
	c7.4-1.9,14.5-3.8,20.5-3.8h0c5.7,0,11.9,1.7,18.4,3.5c10.3,2.8,22.1,6.6,35.7,4.1C871.3,332.9,875.8,326.1,875.8,326.1L875.8,326.1
	z"/>
<path class="st6" d="M894.4,303.6l-68.8-119.2c-2.7-4.6-7.6-7.5-13-7.5v150.4c4.5,0.5,9.3,1.9,14.3,3.2c10.3,2.8,22.1,6.6,35.7,4.1
	c8.8-1.6,13.3-8.5,13.3-8.5h5.6c5.4,0,10.3-2.9,13-7.5C897.1,313.9,897.1,308.2,894.4,303.6z"/>
<g>
	<g>
		<path class="st4" d="M164.3,513.9c-7.6,0-14.7-2.3-19.1-6.2c-4.7-4.1-5.5-9.5-2.2-14.1l207.7-292.7l259.6-0.8l185.8,268.2
			c3,4.3,2.4,9.3-1.5,13.3c-3.9,4-10.8,6.6-18.3,6.9l-610.4,25.4C165.3,513.9,164.8,513.9,164.3,513.9z"/>
	</g>
	<path class="st5" d="M796.1,468.3L610.3,200.1l-128.1,0.4v300.2l294-12.2c7.5-0.3,14.4-2.9,18.3-6.9
		C798.5,477.6,799.1,472.7,796.1,468.3L796.1,468.3z"/>
	<path class="st2" d="M503.5,45.8c-3.7-5.3-12-8.7-21.3-8.8c0,0-0.1,0-0.1,0c-9.2,0-17.6,3.4-21.3,8.6L347.3,205.6l22,9.3
		c13.1,5.6,28.2,8.4,43.3,8.4s30.1-2.8,43.3-8.4l9.3-3.9c10.6-4.5,23.3-4.5,33.9,0l9.3,3.9c26.3,11.2,60.2,11.2,86.5,0l19.9-8.5
		L503.5,45.8z"/>
	<path class="st6" d="M503.5,45.8c-3.7-5.3-12-8.7-21.3-8.8v170.6c5.8,0,11.6,1.1,16.8,3.4l9.3,3.9c26.3,11.2,60.2,11.2,86.5,0
		l19.9-8.5L503.5,45.8z"/>
</g>
<g>
	<g>
		<path class="st4" d="M449.2,523.9c-6.5,0-12.7-2.3-16.5-6.3c-4-4.2-4.8-9.7-1.9-14.4l179.6-297.4l224.5-0.8l160.6,272.5
			c2.6,4.4,2.1,9.4-1.3,13.5c-3.4,4.1-9.3,6.7-15.8,7l-527.7,25.8C450.1,523.8,449.6,523.9,449.2,523.9z"/>
	</g>
	<path class="st5" d="M995.5,477.6L834.8,205.1l-110.8,0.4v305L978.3,498c6.5-0.3,12.4-2.9,15.8-7C997.5,487,998,481.9,995.5,477.6
		L995.5,477.6z"/>
	<path class="st2" d="M742.5,48.3c-3.2-5.4-10.4-8.9-18.4-8.9c0,0-0.1,0-0.1,0c-8,0-15.2,3.4-18.4,8.8l-98.1,162.4l19,9.5
		c11.4,5.7,24.4,8.5,37.4,8.5s26-2.8,37.4-8.5l8-4c9.2-4.6,20.1-4.6,29.3,0l8,4c22.7,11.3,52.1,11.3,74.8,0l17.2-8.6L742.5,48.3z"/>
	<path class="st6" d="M742.5,48.3c-3.2-5.4-10.4-8.9-18.4-8.9v173.3c5,0,10,1.2,14.5,3.4l8,4c22.7,11.3,52.1,11.3,74.8,0l17.2-8.6
		L742.5,48.3z"/>
</g>
</svg>
