<?xml version="1.0" encoding="utf-8"?>

<svg id="svg" version="1.1" xmlns="http://www.w3.org/2000/svg" xmlns:xlink="http://www.w3.org/1999/xlink" width="400" height="340.86661002548857" viewBox="0, 0, 400,340.86661002548857"><g id="svgg"><path id="path0" d="M253.356 92.414 C 249.171 93.652,244.385 97.434,243.101 100.520 C 242.811 101.215,242.449 101.863,242.296 101.960 C 240.654 102.995,240.198 113.548,241.728 115.078 C 241.862 115.212,241.971 115.678,241.971 116.114 C 241.971 116.551,242.124 116.907,242.311 116.907 C 242.498 116.907,242.651 117.151,242.651 117.450 C 242.651 118.859,247.443 123.880,250.010 125.162 C 251.673 125.992,256.137 127.324,256.393 127.067 C 256.710 126.751,255.988 124.561,255.596 124.647 C 255.364 124.699,255.270 124.586,255.388 124.396 C 255.505 124.207,255.325 123.477,254.988 122.774 C 254.433 121.616,254.376 120.354,254.376 109.431 C 254.376 98.507,254.433 97.245,254.988 96.088 C 255.325 95.385,255.492 94.635,255.360 94.421 C 255.218 94.191,255.270 94.125,255.489 94.261 C 255.911 94.522,256.221 94.125,256.426 93.059 C 256.504 92.652,256.763 92.195,257.001 92.044 C 257.777 91.551,255.485 91.784,253.356 92.414 M141.191 99.660 C 141.059 100.268,140.835 100.841,140.694 100.935 C 140.475 101.079,138.972 105.491,137.104 111.470 C 136.522 113.335,135.272 119.207,135.264 120.114 C 135.262 120.476,135.601 121.136,136.019 121.581 C 136.438 122.026,136.782 122.635,136.784 122.933 C 136.787 123.232,137.018 123.552,137.298 123.645 C 137.735 123.791,137.742 123.734,137.342 123.250 C 136.421 122.135,137.501 122.745,139.167 124.282 L 140.867 125.849 139.374 124.791 L 137.882 123.732 136.905 124.483 C 133.735 126.918,134.041 126.321,133.523 131.086 C 132.923 136.594,132.909 152.467,133.500 157.349 C 134.067 162.048,135.616 171.067,135.891 171.283 C 136.011 171.376,136.152 171.986,136.206 172.637 C 136.259 173.289,136.436 173.955,136.599 174.118 C 136.767 174.286,136.872 174.162,136.842 173.831 C 136.785 173.205,139.561 172.119,141.769 171.904 C 142.394 171.843,142.982 171.698,143.076 171.583 C 143.372 171.218,149.228 169.958,149.731 170.151 C 149.996 170.253,150.212 170.174,150.212 169.976 C 150.212 169.778,150.786 169.456,151.487 169.262 C 153.295 168.759,153.452 168.811,152.544 169.612 C 151.924 170.159,151.882 170.275,152.361 170.123 C 152.997 169.921,158.231 168.499,161.257 167.707 L 162.957 167.263 161.597 167.212 C 160.428 167.169,160.345 167.119,161.003 166.854 C 161.423 166.685,161.767 166.389,161.767 166.196 C 161.767 166.003,162.035 165.843,162.362 165.840 C 162.814 165.836,162.849 165.767,162.506 165.550 C 162.210 165.361,162.731 165.130,164.036 164.870 C 166.595 164.360,169.025 163.502,167.969 163.481 C 166.959 163.462,166.976 162.787,167.986 162.787 C 168.416 162.787,168.913 162.660,169.091 162.506 C 169.268 162.352,170.963 161.870,172.856 161.435 L 176.298 160.645 177.068 158.742 C 177.492 157.696,178.122 156.198,178.469 155.414 C 178.816 154.630,179.100 153.712,179.101 153.375 C 179.103 153.037,179.313 152.360,179.569 151.870 C 179.824 151.380,180.984 148.092,182.146 144.564 C 183.307 141.035,184.461 137.689,184.709 137.128 C 184.957 136.568,185.402 135.172,185.697 134.026 C 185.992 132.881,186.462 131.505,186.742 130.968 C 187.022 130.431,187.252 129.701,187.254 129.346 C 187.256 128.618,188.975 124.959,189.402 124.773 C 189.554 124.707,189.819 124.284,189.990 123.833 C 190.162 123.381,190.675 122.871,191.130 122.698 C 191.586 122.524,192.086 122.174,192.241 121.919 C 192.396 121.664,193.018 121.255,193.624 121.011 C 195.036 120.441,194.802 120.104,192.782 119.805 C 179.360 117.815,158.666 109.703,146.285 101.578 C 140.931 98.063,141.491 98.274,141.191 99.660 M155.953 165.484 C 155.180 166.126,155.290 166.119,158.199 165.352 C 161.315 164.530,162.227 164.476,160.622 165.208 C 160.130 165.431,159.728 165.752,159.728 165.920 C 159.728 166.088,159.919 166.110,160.153 165.970 C 160.464 165.783,160.458 165.862,160.131 166.267 C 159.781 166.698,159.031 166.822,156.699 166.833 C 155.057 166.840,153.423 166.942,153.068 167.058 C 152.537 167.231,152.512 167.204,152.931 166.902 C 153.344 166.605,153.264 166.534,152.506 166.530 C 150.920 166.521,151.472 165.976,153.526 165.522 C 154.601 165.284,155.708 164.966,155.987 164.814 C 156.837 164.350,156.815 164.768,155.953 165.484 M141.376 168.226 C 140.909 168.592,140.323 168.818,140.074 168.728 C 139.825 168.638,139.443 168.548,139.225 168.529 C 138.815 168.492,141.281 167.611,141.886 167.578 C 142.073 167.568,141.844 167.859,141.376 168.226 M149.129 169.256 C 148.384 169.650,147.626 169.822,147.260 169.682 C 146.795 169.504,147.017 169.347,148.174 169.038 C 150.353 168.457,150.554 168.503,149.129 169.256 M251.044 186.864 C 249.415 187.608,249.104 187.882,249.256 188.445 C 249.356 188.819,249.445 189.813,249.454 190.654 L 249.469 192.184 250.365 191.164 C 251.122 190.303,251.173 190.127,250.694 190.035 C 249.970 189.894,249.981 189.776,250.830 188.583 C 251.329 187.882,251.819 187.596,252.518 187.596 C 253.470 187.596,254.449 186.593,253.967 186.111 C 253.632 185.776,253.161 185.897,251.044 186.864 M148.085 204.051 C 148.171 204.503,148.542 205.195,148.908 205.588 C 149.274 205.981,149.732 206.758,149.926 207.314 C 150.120 207.871,150.400 208.326,150.549 208.326 C 150.697 208.326,150.914 208.709,151.032 209.176 C 151.149 209.643,151.395 210.025,151.578 210.025 C 151.762 210.025,151.912 210.242,151.912 210.507 C 151.912 210.772,152.026 211.039,152.167 211.102 C 152.307 211.164,152.718 211.797,153.080 212.509 C 153.442 213.220,154.092 214.184,154.524 214.650 C 154.957 215.117,155.310 215.643,155.310 215.820 C 155.310 215.998,155.463 216.143,155.650 216.143 C 155.837 216.143,155.990 216.350,155.990 216.603 C 155.990 216.856,156.372 217.476,156.839 217.980 C 157.307 218.484,157.689 219.046,157.689 219.230 C 157.689 219.413,157.918 219.651,158.199 219.758 C 158.479 219.866,158.709 220.172,158.709 220.438 C 158.709 220.704,158.938 221.010,159.218 221.118 C 159.499 221.225,159.728 221.460,159.728 221.640 C 159.728 222.181,166.093 229.737,166.549 229.737 C 166.665 229.737,167.105 229.438,167.526 229.073 C 169.408 227.441,173.082 227.780,174.908 229.754 C 176.148 231.094,176.158 231.097,177.032 230.503 C 178.237 229.684,184.205 229.648,185.761 230.450 L 186.815 230.994 187.196 228.947 C 187.405 227.821,187.721 226.810,187.899 226.701 C 188.076 226.591,188.327 226.082,188.455 225.570 C 188.584 225.058,188.825 224.639,188.992 224.639 C 189.158 224.639,189.295 224.481,189.295 224.289 C 189.295 223.929,190.992 222.334,192.804 220.992 C 193.368 220.574,194.529 219.974,195.385 219.657 C 196.241 219.340,196.969 219.067,197.003 219.051 C 197.037 219.034,197.384 217.832,197.773 216.380 C 198.162 214.927,198.614 213.476,198.776 213.156 C 198.938 212.836,199.260 212.116,199.490 211.555 C 199.721 210.994,200.044 210.270,200.210 209.945 C 200.489 209.395,200.626 208.326,200.417 208.326 C 200.366 208.326,198.875 208.694,197.104 209.143 C 179.222 213.677,160.217 211.532,149.064 203.720 C 148.090 203.038,147.903 203.101,148.085 204.051 M34.325 254.885 L 34.325 262.702 39.082 262.702 L 43.840 262.702 43.840 286.831 L 43.840 310.960 52.506 310.960 L 61.172 310.960 61.172 286.831 L 61.172 262.702 66.100 262.702 L 71.028 262.702 71.028 254.885 L 71.028 247.069 52.676 247.069 L 34.325 247.069 34.325 254.885 M77.573 271.453 C 77.698 298.408,77.611 297.283,79.954 302.073 C 83.332 308.976,88.879 311.800,99.065 311.800 C 109.251 311.800,114.799 308.976,118.177 302.073 C 120.520 297.283,120.432 298.408,120.558 271.453 L 120.671 247.069 111.992 247.069 L 103.314 247.069 103.314 268.632 C 103.314 295.187,103.238 295.667,99.065 295.667 C 94.893 295.667,94.817 295.187,94.817 268.632 L 94.817 247.069 86.138 247.069 L 77.460 247.069 77.573 271.453 " stroke="none" fill="#9042f6" fill-rule="evenodd"></path><path id="path1" d="M245.879 26.486 C 246.537 26.747,246.538 26.761,245.907 26.887 C 245.383 26.992,245.631 27.319,247.165 28.547 C 248.216 29.388,249.083 30.292,249.092 30.556 C 249.108 31.047,249.862 31.776,252.815 34.155 C 254.472 35.489,255.080 36.283,254.720 36.642 C 254.620 36.742,254.323 36.529,254.060 36.169 C 253.797 35.810,253.464 35.632,253.321 35.775 C 252.927 36.170,253.703 36.779,254.746 36.894 C 255.256 36.950,256.146 37.486,256.724 38.085 C 257.301 38.683,257.545 39.054,257.264 38.907 C 256.984 38.760,257.251 39.168,257.859 39.812 C 258.466 40.457,258.964 41.206,258.964 41.478 C 258.965 41.749,259.408 42.268,259.949 42.630 C 260.490 42.992,260.866 43.460,260.786 43.669 C 260.651 44.022,264.923 48.580,267.409 50.735 C 268.011 51.257,268.425 51.810,268.329 51.964 C 268.234 52.119,268.496 52.534,268.912 52.886 L 269.669 53.526 268.991 52.676 L 268.314 51.827 269.246 52.651 C 270.177 53.473,270.481 53.923,269.839 53.526 C 269.652 53.410,269.499 53.469,269.499 53.656 C 269.499 53.843,269.690 54.118,269.924 54.268 C 270.524 54.654,271.878 54.641,271.878 54.250 C 271.878 54.070,271.966 54.011,272.074 54.119 C 272.182 54.227,273.350 53.870,274.670 53.326 C 277.819 52.027,277.802 52.024,279.262 54.291 C 280.729 56.570,285.548 65.930,285.254 65.930 C 285.144 65.930,285.304 66.313,285.610 66.780 C 285.916 67.247,286.049 67.632,285.904 67.635 C 285.760 67.638,285.840 67.766,286.083 67.920 C 286.326 68.074,286.550 68.531,286.580 68.935 C 286.611 69.338,286.738 69.669,286.862 69.669 C 287.266 69.669,287.924 71.654,287.661 72.080 C 287.487 72.360,287.548 72.404,287.851 72.217 C 288.184 72.012,288.248 72.128,288.106 72.675 C 288.000 73.078,288.053 73.322,288.222 73.217 C 288.391 73.113,288.530 73.253,288.530 73.529 C 288.530 75.139,289.915 77.094,292.547 79.200 C 294.369 80.659,295.416 81.763,295.673 82.497 C 295.885 83.104,296.387 83.830,296.788 84.111 C 297.189 84.392,297.395 84.622,297.246 84.622 C 297.096 84.622,297.445 85.018,298.020 85.502 C 298.605 85.994,299.065 86.711,299.065 87.130 C 299.065 87.569,299.699 88.501,300.595 89.380 C 301.436 90.205,302.124 91.078,302.124 91.320 C 302.124 91.561,302.277 91.759,302.464 91.759 C 302.651 91.759,302.804 91.440,302.804 91.051 C 302.804 90.028,303.631 90.437,303.760 91.524 C 303.831 92.117,304.323 92.748,305.197 93.367 C 305.929 93.884,306.531 94.451,306.535 94.626 C 306.539 94.800,307.154 95.669,307.901 96.556 C 308.649 97.442,309.261 98.260,309.261 98.372 C 309.261 98.661,311.548 100.635,311.877 100.630 C 312.350 100.623,314.359 102.745,314.359 103.252 C 314.359 103.657,314.261 103.663,313.764 103.290 C 313.437 103.044,314.201 103.909,315.463 105.211 C 316.725 106.513,317.757 107.766,317.757 107.995 C 317.757 108.224,317.964 108.411,318.217 108.411 C 318.469 108.411,319.781 109.482,321.132 110.790 C 322.482 112.099,323.728 113.169,323.901 113.169 C 324.073 113.169,324.214 113.380,324.214 113.639 C 324.214 113.897,324.782 114.541,325.476 115.070 C 326.689 115.996,326.707 116.040,325.953 116.218 L 325.169 116.403 325.881 117.048 C 326.523 117.629,326.593 117.636,326.593 117.116 C 326.593 111.797,335.813 107.395,341.328 110.082 C 350.116 114.363,348.204 128.137,338.610 129.672 C 337.793 129.802,337.242 130.076,337.242 130.351 C 337.242 130.604,337.346 130.747,337.474 130.668 C 337.781 130.478,339.892 132.042,339.653 132.281 C 339.551 132.383,339.974 132.819,340.592 133.250 C 349.361 139.369,362.754 153.751,370.785 165.675 L 372.616 168.394 373.026 165.963 C 374.724 155.888,374.834 131.895,373.185 131.261 C 373.056 131.211,373.012 130.637,373.088 129.986 C 373.179 129.207,373.085 128.802,372.813 128.802 C 372.575 128.802,372.488 128.573,372.606 128.264 C 372.743 127.908,372.389 127.360,371.566 126.649 C 370.880 126.058,370.075 125.342,369.777 125.059 C 369.479 124.776,368.743 124.195,368.142 123.767 C 367.541 123.339,366.779 122.424,366.448 121.732 C 365.929 120.650,365.831 120.579,365.739 121.224 C 365.618 122.077,363.100 119.772,361.953 117.757 C 361.634 117.196,361.065 116.583,360.690 116.393 C 360.314 116.204,359.035 115.210,357.848 114.184 C 356.660 113.159,355.790 112.587,355.913 112.914 C 356.037 113.241,355.990 113.509,355.809 113.509 C 355.628 113.509,355.480 113.132,355.480 112.672 C 355.480 112.057,354.914 111.370,353.356 110.089 C 352.188 109.130,350.655 107.871,349.951 107.292 C 349.246 106.714,348.460 106.209,348.203 106.172 C 347.947 106.134,347.074 105.399,346.264 104.538 C 345.454 103.678,344.650 102.974,344.477 102.974 C 344.304 102.974,343.536 102.316,342.770 101.513 C 342.003 100.710,341.009 99.800,340.560 99.491 C 340.111 99.182,339.041 98.269,338.181 97.463 C 337.322 96.656,336.066 95.586,335.391 95.085 C 334.716 94.584,333.096 93.195,331.790 91.997 C 329.451 89.850,325.607 86.844,325.189 86.835 C 324.651 86.824,320.849 83.371,320.833 82.879 C 320.812 82.204,316.671 78.505,315.937 78.505 C 315.648 78.505,315.290 78.314,315.140 78.080 C 314.991 77.846,314.167 77.120,313.309 76.466 C 310.534 74.349,309.262 73.102,309.154 72.393 C 309.095 72.011,308.844 71.509,308.595 71.278 C 308.234 70.944,308.191 70.945,308.381 71.283 C 308.759 71.952,308.071 71.779,307.399 71.036 C 307.065 70.667,306.683 70.431,306.551 70.513 C 306.420 70.594,305.489 69.837,304.484 68.831 C 303.479 67.824,302.554 67.064,302.429 67.142 C 302.303 67.219,301.993 67.025,301.738 66.711 C 301.470 66.381,301.444 66.241,301.676 66.380 C 301.896 66.513,302.165 66.479,302.272 66.305 C 302.380 66.131,302.017 65.790,301.467 65.546 C 300.916 65.302,300.394 64.830,300.307 64.497 C 300.220 64.164,299.963 63.891,299.735 63.891 C 299.415 63.891,299.417 64.006,299.745 64.401 C 300.559 65.382,299.648 64.897,297.667 63.297 C 296.536 62.382,295.669 61.410,295.668 61.054 C 295.667 60.228,293.658 58.333,292.726 58.278 C 291.572 58.210,290.230 57.161,290.223 56.322 C 290.217 55.505,287.731 53.180,287.209 53.502 C 287.043 53.605,286.719 53.461,286.488 53.182 C 286.257 52.904,285.900 52.676,285.695 52.676 C 285.490 52.676,284.094 51.415,282.593 49.873 C 279.885 47.091,278.191 45.572,276.720 44.605 C 276.300 44.328,275.956 43.836,275.956 43.512 C 275.956 42.685,272.698 39.773,271.506 39.535 C 270.859 39.405,270.518 39.128,270.518 38.732 C 270.518 38.087,267.300 35.189,266.575 35.180 C 266.338 35.177,265.592 34.531,264.919 33.745 C 263.404 31.977,260.763 30.132,260.556 30.696 C 260.350 31.259,257.968 28.961,257.409 27.659 C 257.048 26.819,256.689 26.558,255.665 26.389 C 253.780 26.077,245.069 26.164,245.879 26.486 M257.001 92.044 C 256.763 92.195,256.504 92.652,256.426 93.059 C 256.221 94.125,255.911 94.522,255.489 94.261 C 255.270 94.125,255.218 94.191,255.360 94.421 C 255.492 94.635,255.325 95.385,254.988 96.088 C 254.433 97.245,254.376 98.507,254.376 109.431 C 254.376 120.354,254.433 121.616,254.988 122.774 C 255.325 123.477,255.492 124.227,255.360 124.440 C 255.212 124.681,255.271 124.736,255.515 124.585 C 255.920 124.335,256.037 124.547,256.393 126.168 C 256.679 127.474,258.115 127.429,259.445 126.074 C 259.990 125.518,260.553 125.064,260.696 125.064 C 260.840 125.064,261.054 124.759,261.172 124.386 C 261.290 124.013,261.645 123.451,261.959 123.136 C 262.472 122.624,262.542 121.246,262.629 110.007 C 262.740 95.673,262.815 96.102,259.702 93.231 C 258.063 91.719,257.738 91.576,257.001 92.044 M291.790 123.110 C 291.706 123.530,291.065 126.474,290.365 129.652 C 288.653 137.424,288.663 137.289,289.701 138.388 C 290.178 138.894,290.569 139.402,290.569 139.517 C 290.569 139.862,291.514 140.697,291.904 140.697 C 292.105 140.697,292.268 140.544,292.268 140.357 C 292.268 140.170,292.116 140.017,291.929 140.017 C 290.854 140.017,291.875 139.382,293.543 139.013 C 294.618 138.776,296.160 138.358,296.970 138.086 C 297.781 137.814,298.740 137.569,299.103 137.542 C 299.524 137.510,299.695 137.317,299.576 137.007 C 299.425 136.615,299.486 136.602,299.892 136.940 C 300.169 137.169,300.585 137.239,300.818 137.095 C 301.051 136.951,302.141 136.812,303.240 136.786 C 304.343 136.760,305.348 136.561,305.483 136.343 C 305.640 136.088,306.084 136.037,306.729 136.198 C 307.632 136.424,308.004 136.439,309.536 136.315 C 309.780 136.295,309.897 136.143,309.795 135.978 C 309.454 135.426,311.441 135.290,312.036 135.824 C 312.483 136.225,312.756 136.251,313.325 135.946 C 313.723 135.733,314.462 135.591,314.968 135.630 C 316.575 135.755,317.464 135.610,317.247 135.259 C 316.982 134.831,317.850 134.811,318.284 135.235 C 318.614 135.558,321.835 134.989,321.835 134.607 C 321.835 134.327,323.927 134.422,324.647 134.736 C 324.978 134.880,325.896 134.805,326.686 134.570 C 328.320 134.083,330.182 133.990,331.181 134.345 C 331.555 134.478,330.178 133.751,328.122 132.729 C 320.049 128.717,300.112 122.629,297.868 123.491 C 297.592 123.596,297.366 123.516,297.366 123.311 C 297.366 123.080,296.982 123.016,296.347 123.144 C 295.715 123.270,295.327 123.207,295.327 122.979 C 295.327 122.758,294.851 122.666,294.138 122.749 C 293.483 122.826,292.948 122.766,292.948 122.617 C 292.948 121.979,291.928 122.413,291.790 123.110 M202.379 155.264 C 187.585 164.965,178.277 171.339,180.719 170.096 C 180.956 169.975,181.721 169.814,182.419 169.739 C 184.091 169.557,185.138 169.333,185.577 169.061 C 185.774 168.939,186.271 168.793,186.680 168.735 C 187.090 168.677,187.923 168.519,188.530 168.384 C 189.313 168.211,189.635 168.262,189.635 168.559 C 189.635 169.014,191.288 168.813,193.929 168.038 C 194.329 167.921,194.758 167.991,194.884 168.195 C 195.158 168.637,196.771 168.694,196.771 168.261 C 196.771 168.094,196.504 167.850,196.177 167.719 C 195.251 167.349,200.059 166.235,201.658 166.449 C 202.711 166.591,202.934 166.533,202.714 166.177 C 202.231 165.397,202.537 160.511,203.258 157.474 C 204.073 154.043,204.108 154.130,202.379 155.264 M176.381 160.290 C 176.381 160.474,174.813 160.985,172.897 161.425 C 170.981 161.865,169.268 162.352,169.091 162.506 C 168.913 162.660,168.416 162.787,167.986 162.787 C 166.976 162.787,166.959 163.462,167.969 163.481 C 169.025 163.502,166.595 164.360,164.036 164.870 C 162.731 165.130,162.210 165.361,162.506 165.550 C 162.849 165.767,162.814 165.836,162.362 165.840 C 162.035 165.843,161.767 166.003,161.767 166.196 C 161.767 166.389,161.423 166.685,161.003 166.854 C 160.345 167.119,160.428 167.169,161.597 167.212 L 162.957 167.263 161.257 167.707 C 158.231 168.499,152.997 169.921,152.361 170.123 C 151.882 170.275,151.924 170.159,152.544 169.612 C 153.452 168.811,153.295 168.759,151.487 169.262 C 150.786 169.456,150.212 169.778,150.212 169.976 C 150.212 170.174,149.996 170.253,149.731 170.151 C 149.228 169.958,143.372 171.218,143.076 171.583 C 142.982 171.698,142.394 171.843,141.769 171.904 C 139.652 172.110,136.785 173.207,136.835 173.791 C 136.861 174.090,136.746 174.250,136.580 174.148 C 136.414 174.045,136.279 174.124,136.279 174.321 C 136.279 174.519,136.442 174.681,136.641 174.681 C 136.844 174.681,136.913 174.969,136.798 175.332 C 136.684 175.691,136.753 176.083,136.950 176.206 C 137.148 176.328,137.217 176.577,137.105 176.759 C 136.992 176.941,137.053 177.275,137.240 177.500 C 137.607 177.942,137.638 178.067,137.638 179.099 C 137.638 179.473,137.770 179.779,137.931 179.779 C 138.092 179.779,138.150 179.397,138.061 178.929 C 137.909 178.133,137.988 178.080,139.315 178.080 C 140.093 178.080,141.196 177.839,141.764 177.545 C 142.481 177.175,143.208 177.080,144.136 177.237 C 145.508 177.469,148.037 177.038,150.297 176.186 C 151.657 175.674,151.951 175.848,150.977 176.587 C 150.421 177.009,150.428 177.039,151.079 177.050 C 151.462 177.055,151.961 176.875,152.188 176.648 C 152.415 176.421,153.478 176.123,154.550 175.985 C 157.558 175.600,158.815 175.303,159.599 174.792 C 160.448 174.237,162.681 173.896,163.232 174.237 C 163.796 174.585,166.272 174.347,166.865 173.887 C 168.150 172.891,168.923 172.629,169.567 172.973 C 170.251 173.339,171.283 173.118,171.283 172.606 C 171.283 172.439,171.015 172.298,170.688 172.292 C 170.138 172.283,170.140 172.254,170.716 171.920 C 171.058 171.721,171.632 171.635,171.990 171.728 C 172.355 171.824,172.643 171.726,172.644 171.506 C 172.646 171.290,172.893 170.654,173.193 170.093 C 173.937 168.706,176.755 160.329,176.547 160.121 C 176.455 160.030,176.381 160.106,176.381 160.290 M155.987 164.814 C 155.708 164.966,154.601 165.284,153.526 165.522 C 151.472 165.976,150.920 166.521,152.506 166.530 C 153.264 166.534,153.344 166.605,152.931 166.902 C 152.512 167.204,152.537 167.231,153.068 167.058 C 153.423 166.942,155.057 166.840,156.699 166.833 C 159.031 166.822,159.781 166.698,160.131 166.267 C 160.458 165.862,160.464 165.783,160.153 165.970 C 159.919 166.110,159.728 166.088,159.728 165.920 C 159.728 165.752,160.130 165.431,160.622 165.208 C 162.227 164.476,161.315 164.530,158.199 165.352 C 155.290 166.119,155.180 166.126,155.953 165.484 C 156.815 164.768,156.837 164.350,155.987 164.814 M140.187 168.045 C 139.439 168.291,139.006 168.509,139.225 168.529 C 139.443 168.548,139.825 168.638,140.074 168.728 C 140.323 168.818,140.909 168.592,141.376 168.226 C 142.356 167.458,142.091 167.417,140.187 168.045 M148.174 169.038 C 147.017 169.347,146.795 169.504,147.260 169.682 C 147.626 169.822,148.384 169.650,149.129 169.256 C 150.554 168.503,150.353 168.457,148.174 169.038 M138.118 180.672 C 138.234 180.977,138.498 181.895,138.704 182.712 C 138.910 183.529,139.203 184.197,139.355 184.197 C 139.508 184.197,139.323 183.280,138.944 182.158 C 138.565 181.037,138.177 180.119,138.080 180.119 C 137.984 180.119,138.001 180.368,138.118 180.672 M253.880 186.890 C 253.631 187.355,253.166 187.596,252.518 187.596 C 251.140 187.596,249.476 189.793,250.670 190.035 C 251.133 190.129,251.105 190.280,250.474 191.080 C 249.809 191.923,249.793 192.037,250.306 192.234 C 250.624 192.356,250.997 192.257,251.150 192.009 C 251.301 191.764,251.783 191.526,252.220 191.478 C 252.658 191.430,253.096 191.378,253.193 191.362 C 253.290 191.347,253.975 190.569,254.715 189.635 C 255.603 188.514,256.317 187.935,256.813 187.935 C 258.127 187.935,257.971 187.371,256.538 186.942 C 255.777 186.714,254.953 186.450,254.706 186.356 C 254.459 186.261,254.088 186.501,253.880 186.890 " stroke="none" fill="#8773f5" fill-rule="evenodd"></path><path id="path2" d="M252.167 26.160 C 254.316 26.302,256.264 26.439,256.495 26.463 C 256.726 26.488,257.128 27.005,257.389 27.613 C 257.963 28.950,260.346 31.270,260.556 30.696 C 260.763 30.132,263.404 31.977,264.919 33.745 C 265.592 34.531,266.338 35.177,266.575 35.180 C 267.300 35.189,270.518 38.087,270.518 38.732 C 270.518 39.128,270.859 39.405,271.506 39.535 C 272.698 39.773,275.956 42.685,275.956 43.512 C 275.956 43.836,276.300 44.328,276.720 44.605 C 278.191 45.572,279.885 47.091,282.593 49.873 C 284.094 51.415,285.490 52.676,285.695 52.676 C 285.900 52.676,286.257 52.904,286.488 53.182 C 286.719 53.461,287.043 53.605,287.209 53.502 C 287.731 53.180,290.217 55.505,290.223 56.322 C 290.230 57.161,291.572 58.210,292.726 58.278 C 293.658 58.333,295.667 60.228,295.668 61.054 C 295.669 61.410,296.536 62.382,297.667 63.297 C 299.648 64.897,300.559 65.382,299.745 64.401 C 299.417 64.006,299.415 63.891,299.735 63.891 C 299.963 63.891,300.220 64.164,300.307 64.497 C 300.394 64.830,300.916 65.302,301.467 65.546 C 302.017 65.790,302.380 66.131,302.272 66.305 C 302.165 66.479,301.896 66.513,301.676 66.380 C 301.444 66.241,301.470 66.381,301.738 66.711 C 301.993 67.025,302.303 67.219,302.429 67.142 C 302.554 67.064,303.479 67.824,304.484 68.831 C 305.489 69.837,306.420 70.594,306.551 70.513 C 306.683 70.431,307.065 70.667,307.399 71.036 C 308.071 71.779,308.759 71.952,308.381 71.283 C 308.191 70.945,308.234 70.944,308.595 71.278 C 308.844 71.509,309.095 72.011,309.154 72.393 C 309.262 73.102,310.534 74.349,313.309 76.466 C 314.167 77.120,314.991 77.846,315.140 78.080 C 315.290 78.314,315.648 78.505,315.937 78.505 C 316.671 78.505,320.812 82.204,320.833 82.879 C 320.849 83.371,324.651 86.824,325.189 86.835 C 325.607 86.844,329.451 89.850,331.790 91.997 C 333.096 93.195,334.716 94.584,335.391 95.085 C 336.066 95.586,337.322 96.656,338.181 97.463 C 339.041 98.269,340.111 99.182,340.560 99.491 C 341.009 99.800,342.003 100.710,342.770 101.513 C 343.536 102.316,344.304 102.974,344.477 102.974 C 344.650 102.974,345.454 103.678,346.264 104.538 C 347.074 105.399,347.947 106.134,348.203 106.172 C 348.460 106.209,349.246 106.714,349.951 107.292 C 350.655 107.871,352.188 109.130,353.356 110.089 C 354.914 111.370,355.480 112.057,355.480 112.672 C 355.480 113.132,355.628 113.509,355.809 113.509 C 355.990 113.509,356.037 113.241,355.913 112.914 C 355.790 112.587,356.660 113.159,357.848 114.184 C 359.035 115.210,360.314 116.204,360.690 116.393 C 361.065 116.583,361.634 117.196,361.953 117.757 C 363.100 119.772,365.618 122.077,365.739 121.224 C 365.831 120.579,365.929 120.650,366.448 121.732 C 366.779 122.424,367.541 123.339,368.142 123.767 C 368.743 124.195,369.484 124.776,369.790 125.059 C 370.095 125.342,370.823 126.007,371.409 126.537 L 372.472 127.500 372.472 126.474 C 372.472 123.010,367.614 106.613,364.614 99.953 C 364.076 98.759,363.636 97.639,363.636 97.465 C 363.636 97.290,363.407 96.918,363.127 96.638 C 362.846 96.358,362.617 95.828,362.617 95.461 C 362.617 94.599,361.008 91.419,360.572 91.419 C 360.388 91.419,360.238 91.108,360.238 90.727 C 360.238 90.042,359.434 88.506,358.732 87.850 C 358.532 87.664,358.194 87.023,357.981 86.427 C 357.408 84.822,352.320 77.152,351.827 77.148 C 351.593 77.147,351.402 76.909,351.402 76.621 C 351.402 75.945,349.313 73.098,348.805 73.080 C 348.592 73.073,348.321 72.685,348.204 72.218 C 348.086 71.750,347.797 71.368,347.562 71.368 C 347.326 71.368,346.960 70.909,346.748 70.348 C 346.536 69.788,346.154 69.329,345.898 69.329 C 345.643 69.329,345.256 68.858,345.039 68.283 C 344.822 67.707,344.329 67.154,343.945 67.053 C 343.560 66.953,343.246 66.646,343.246 66.370 C 343.246 65.694,334.950 57.434,334.270 57.434 C 333.973 57.434,333.730 57.220,333.730 56.958 C 333.730 56.475,325.887 49.958,325.306 49.958 C 325.131 49.958,324.421 49.422,323.728 48.768 C 323.034 48.114,322.171 47.579,321.811 47.579 C 321.450 47.579,321.155 47.382,321.155 47.142 C 321.155 46.697,319.472 45.540,318.825 45.540 C 318.628 45.540,318.085 45.157,317.618 44.690 C 317.151 44.223,316.456 43.840,316.073 43.840 C 315.691 43.840,315.378 43.694,315.378 43.515 C 315.378 43.089,312.594 41.461,311.865 41.461 C 311.554 41.461,311.300 41.302,311.300 41.106 C 311.300 40.629,301.158 35.684,300.179 35.684 C 299.753 35.684,299.405 35.531,299.405 35.344 C 299.405 35.157,299.023 35.004,298.556 35.004 C 298.088 35.004,297.706 34.872,297.706 34.710 C 297.706 34.335,293.030 32.622,292.014 32.624 C 291.593 32.625,291.249 32.496,291.249 32.338 C 291.249 31.845,280.648 28.906,278.828 28.894 C 278.257 28.890,277.646 28.745,277.468 28.572 C 276.497 27.625,264.101 26.305,253.696 26.040 C 248.798 25.916,248.646 25.928,252.167 26.160 M243.080 26.412 C 243.597 26.490,244.362 26.488,244.780 26.407 C 245.198 26.327,244.775 26.263,243.840 26.265 C 242.906 26.268,242.564 26.334,243.080 26.412 M134.780 122.231 C 134.664 123.135,134.565 124.295,134.560 124.809 C 134.556 125.323,134.405 125.743,134.226 125.743 C 134.047 125.743,133.900 125.984,133.900 126.279 C 133.900 126.833,133.909 126.827,136.914 124.481 L 137.877 123.729 139.372 124.789 L 140.867 125.849 139.167 124.282 C 137.501 122.745,136.421 122.135,137.342 123.250 C 137.742 123.734,137.735 123.790,137.298 123.638 C 137.018 123.541,136.808 123.221,136.832 122.927 C 136.856 122.633,136.451 121.986,135.934 121.490 L 134.992 120.588 134.780 122.231 M132.674 144.265 C 132.675 146.882,132.728 147.907,132.793 146.544 C 132.858 145.181,132.857 143.040,132.792 141.786 C 132.727 140.533,132.674 141.648,132.674 144.265 M160.450 223.672 C 161.065 224.449,162.263 225.798,163.112 226.670 C 164.871 228.475,163.844 227.106,161.003 223.857 C 160.489 223.269,160.068 222.669,160.068 222.524 C 160.068 222.379,159.902 222.260,159.700 222.260 C 159.497 222.260,159.835 222.896,160.450 223.672 " stroke="none" fill="#a37ffb" fill-rule="evenodd"></path><path id="path3" d="M197.281 39.705 C 184.437 46.306,172.195 55.582,163.539 65.271 C 160.493 68.681,156.669 73.215,156.669 73.417 C 156.669 73.559,156.211 74.166,155.650 74.766 C 155.089 75.367,154.630 75.987,154.630 76.144 C 154.630 76.302,154.248 76.843,153.781 77.347 C 153.314 77.852,152.931 78.395,152.931 78.554 C 152.931 78.714,152.625 79.150,152.251 79.524 C 151.878 79.898,151.572 80.433,151.572 80.714 C 151.572 80.994,151.438 81.223,151.274 81.223 C 150.601 81.223,144.139 92.746,142.292 97.240 L 141.785 98.473 145.404 100.849 C 157.206 108.596,170.424 114.271,185.079 117.882 C 194.714 120.256,195.248 120.299,199.097 119.009 C 200.902 118.403,202.509 117.912,202.667 117.918 C 202.826 117.923,203.438 117.726,204.027 117.480 C 205.227 116.978,208.736 115.826,214.206 114.136 L 217.877 113.003 218.593 111.472 C 218.986 110.630,219.660 109.176,220.089 108.241 C 221.933 104.232,226.400 95.273,226.858 94.663 C 227.133 94.298,227.358 93.801,227.358 93.559 C 227.358 93.316,227.508 93.118,227.691 93.118 C 227.874 93.118,228.120 92.736,228.238 92.268 C 228.355 91.801,228.587 91.419,228.754 91.419 C 228.921 91.419,229.057 91.260,229.057 91.065 C 229.057 90.870,229.363 90.382,229.737 89.981 C 230.110 89.580,230.416 89.051,230.416 88.806 C 230.416 88.561,230.569 88.360,230.756 88.360 C 230.943 88.360,231.096 88.196,231.096 87.996 C 231.096 87.796,231.287 87.419,231.521 87.158 C 232.493 86.074,232.795 85.655,232.795 85.391 C 232.795 85.238,233.063 84.855,233.390 84.539 C 234.870 83.112,236.192 81.290,235.115 82.162 C 234.679 82.515,234.501 82.485,234.115 81.992 C 233.688 81.449,233.700 81.436,234.240 81.860 C 234.646 82.179,234.834 82.202,234.834 81.934 C 234.834 81.718,234.608 81.455,234.332 81.349 C 234.033 81.235,233.741 80.490,233.612 79.515 C 233.455 78.335,233.123 77.615,232.427 76.948 C 231.895 76.439,231.543 75.888,231.643 75.725 C 231.744 75.562,231.361 75.266,230.792 75.068 C 230.222 74.869,229.790 74.605,229.830 74.482 C 229.871 74.358,229.472 73.690,228.943 72.998 C 227.631 71.282,227.803 70.315,229.227 71.402 C 230.457 72.341,227.145 69.006,222.260 64.387 C 218.672 60.994,217.217 59.411,218.208 59.976 C 218.600 60.200,218.611 60.166,218.267 59.795 C 218.033 59.543,217.841 59.100,217.840 58.811 C 217.838 58.293,215.091 55.208,213.424 53.852 C 212.290 52.929,211.128 50.908,212.065 51.487 C 212.814 51.950,212.343 50.986,211.455 50.239 C 210.270 49.242,209.795 48.531,210.491 48.798 C 210.767 48.904,211.076 49.208,211.178 49.474 C 211.405 50.064,212.065 50.116,212.065 49.544 C 212.065 49.119,209.038 46.234,208.581 46.225 C 208.441 46.222,208.326 46.028,208.325 45.794 C 208.325 45.561,207.025 43.968,205.437 42.256 C 202.459 39.046,202.006 38.040,203.144 37.177 C 204.514 36.136,202.720 36.910,197.281 39.705 M226.956 69.529 C 227.644 70.201,227.901 70.597,227.528 70.410 C 226.761 70.028,225.064 68.309,225.452 68.309 C 225.590 68.309,226.267 68.858,226.956 69.529 M240.442 76.126 C 239.521 77.060,238.915 77.809,239.095 77.790 C 239.415 77.757,242.549 74.427,242.261 74.427 C 242.181 74.427,241.362 75.191,240.442 76.126 M236.364 80.544 C 235.826 81.105,235.558 81.563,235.767 81.563 C 235.976 81.563,236.474 81.105,236.873 80.544 C 237.273 79.983,237.541 79.524,237.470 79.524 C 237.399 79.524,236.901 79.983,236.364 80.544 M186.718 98.599 C 186.920 98.766,187.493 99.208,187.991 99.580 C 190.155 101.201,190.907 104.934,189.608 107.617 C 186.392 114.260,176.429 111.361,177.138 103.988 C 177.303 102.266,178.845 99.406,179.768 99.108 C 180.054 99.016,180.901 98.703,181.648 98.413 C 183.047 97.870,185.965 97.977,186.718 98.599 M370.775 166.714 C 370.777 167.058,372.440 169.201,372.460 168.885 C 372.467 168.781,372.090 168.178,371.623 167.545 C 371.155 166.911,370.774 166.537,370.775 166.714 M369.274 169.710 C 369.504 170.310,367.793 170.669,366.924 170.204 C 366.151 169.790,365.675 170.168,366.365 170.648 C 366.719 170.895,366.341 170.935,365.070 170.786 C 364.082 170.671,363.088 170.693,362.861 170.836 C 362.633 170.978,362.294 171.107,362.107 171.121 C 361.407 171.174,358.936 171.740,355.428 172.651 C 353.436 173.168,351.678 173.468,351.519 173.318 C 350.515 172.363,345.971 170.138,345.676 170.456 C 345.554 170.588,345.646 170.765,345.879 170.848 C 346.343 171.014,346.473 171.963,346.032 171.963 C 345.883 171.963,345.577 171.779,345.353 171.555 C 345.120 171.322,344.945 171.295,344.945 171.491 C 344.945 171.680,344.631 172.171,344.248 172.583 C 343.839 173.021,343.658 173.505,343.810 173.751 C 343.952 173.982,343.668 173.910,343.179 173.589 C 342.402 173.081,342.236 173.071,341.876 173.505 C 341.649 173.778,341.203 174.002,340.884 174.002 C 339.384 174.002,338.424 176.030,339.566 176.788 C 340.466 177.386,337.594 181.470,336.269 181.476 C 335.890 181.477,335.318 181.784,334.998 182.158 C 334.511 182.726,334.499 182.838,334.923 182.838 C 335.201 182.838,335.429 182.976,335.429 183.146 C 335.429 183.315,335.085 183.393,334.664 183.319 C 334.244 183.245,335.490 183.710,337.433 184.353 C 340.548 185.382,343.009 186.555,340.895 186.002 C 340.326 185.853,340.101 185.981,339.956 186.535 C 339.852 186.935,339.407 187.353,338.968 187.463 C 338.529 187.573,338.184 187.763,338.199 187.884 C 338.297 188.629,338.061 188.955,337.423 188.955 C 337.025 188.955,336.194 189.490,335.577 190.144 C 334.960 190.799,334.139 191.334,333.753 191.334 C 332.982 191.334,332.800 191.856,333.475 192.128 C 333.709 192.223,333.579 192.312,333.188 192.327 C 332.796 192.341,332.199 192.659,331.861 193.033 C 331.522 193.407,330.849 193.731,330.364 193.752 C 329.788 193.778,329.688 193.846,330.076 193.947 C 330.764 194.127,330.869 194.698,330.246 194.873 C 327.404 195.670,326.626 196.041,325.686 197.050 C 325.093 197.685,324.480 198.125,324.322 198.028 C 323.928 197.784,323.172 198.409,322.036 199.915 C 321.464 200.674,320.788 201.189,320.365 201.189 C 319.543 201.189,317.351 203.531,317.581 204.163 C 317.666 204.397,317.571 204.588,317.370 204.588 C 317.169 204.588,317.101 204.839,317.219 205.146 C 317.390 205.591,317.337 205.625,316.960 205.312 C 316.596 205.009,316.385 205.043,316.040 205.459 C 315.678 205.896,315.675 206.051,316.026 206.267 C 316.682 206.673,314.891 206.932,314.181 206.534 C 313.806 206.324,313.521 206.327,313.383 206.542 C 313.266 206.725,312.823 206.983,312.399 207.115 C 311.976 207.248,311.724 207.508,311.839 207.694 C 311.954 207.880,311.732 208.115,311.345 208.216 C 310.959 208.317,310.553 208.681,310.444 209.025 C 310.334 209.372,310.041 209.572,309.788 209.475 C 309.536 209.379,309.214 209.486,309.073 209.715 C 308.898 209.998,308.958 210.043,309.261 209.856 C 309.541 209.682,309.623 209.714,309.483 209.941 C 309.360 210.139,308.987 210.230,308.652 210.143 C 307.688 209.890,306.661 211.218,307.260 211.943 C 307.692 212.466,307.613 212.499,306.330 212.328 C 304.516 212.086,303.720 212.514,304.675 213.218 C 305.610 213.908,305.019 214.418,303.126 214.555 C 301.804 214.651,301.624 214.758,301.695 215.404 C 301.747 215.879,301.588 216.143,301.250 216.143 C 300.961 216.143,300.810 216.281,300.915 216.451 C 301.020 216.620,300.820 216.685,300.472 216.593 C 300.035 216.479,299.781 216.647,299.654 217.135 C 299.541 217.567,299.192 217.842,298.757 217.842 C 298.366 217.842,298.046 217.995,298.046 218.182 C 298.046 218.369,297.816 218.522,297.536 218.522 C 297.256 218.522,297.026 218.664,297.026 218.839 C 297.026 219.222,295.811 219.674,294.647 219.723 C 293.616 219.767,292.077 220.386,291.772 220.880 C 291.649 221.078,291.137 221.253,290.634 221.267 C 290.131 221.282,289.912 221.372,290.147 221.466 C 290.748 221.709,290.320 222.260,289.530 222.260 C 289.099 222.260,288.870 222.493,288.870 222.933 C 288.870 223.573,287.572 224.212,286.641 224.030 C 286.443 223.991,285.832 224.568,285.282 225.313 C 284.660 226.155,283.740 226.877,282.847 227.225 C 282.052 227.534,281.318 228.078,281.202 228.445 C 281.086 228.810,280.905 229.021,280.799 228.916 C 280.693 228.810,280.395 228.899,280.136 229.113 C 279.810 229.384,279.557 229.395,279.311 229.150 C 278.915 228.753,277.655 228.971,277.655 229.436 C 277.655 229.602,277.808 229.737,277.995 229.737 C 278.182 229.737,278.335 229.907,278.335 230.116 C 278.335 230.325,278.038 230.418,277.674 230.323 C 277.282 230.220,276.778 230.411,276.432 230.793 C 276.112 231.147,275.530 231.437,275.138 231.439 C 274.747 231.441,274.052 231.915,273.595 232.494 C 273.138 233.073,272.450 233.664,272.066 233.809 C 271.460 234.037,271.591 234.177,273.067 234.878 C 274.002 235.321,274.817 235.799,274.880 235.939 C 274.942 236.079,275.110 236.194,275.253 236.194 C 275.609 236.194,279.354 239.965,279.354 240.324 C 279.354 240.482,279.469 240.612,279.609 240.613 C 279.749 240.614,280.246 241.531,280.714 242.651 C 281.643 244.878,281.910 245.076,282.439 243.925 C 282.632 243.505,283.509 242.805,284.386 242.370 C 285.948 241.596,285.981 241.546,285.982 239.983 C 285.982 238.797,286.179 238.174,286.747 237.565 C 287.167 237.114,287.513 236.583,287.515 236.385 C 287.521 235.882,289.849 234.375,291.079 234.078 C 293.064 233.599,294.887 234.130,296.630 235.698 C 297.811 236.759,298.393 237.077,298.747 236.853 C 299.016 236.683,299.802 236.542,300.494 236.539 C 301.669 236.534,301.769 236.452,301.982 235.312 C 302.108 234.641,302.574 233.409,303.017 232.576 C 303.461 231.742,303.823 230.839,303.823 230.568 C 303.823 230.298,303.976 230.076,304.163 230.076 C 304.350 230.076,304.503 229.847,304.503 229.567 C 304.503 229.286,304.661 229.057,304.853 229.057 C 305.046 229.057,305.293 228.826,305.401 228.543 C 305.652 227.888,307.872 225.658,308.272 225.658 C 308.439 225.658,308.766 225.353,309.000 224.979 C 309.233 224.605,309.606 224.299,309.828 224.299 C 310.050 224.299,310.434 224.108,310.681 223.874 C 312.955 221.723,320.989 220.527,324.998 221.743 C 327.053 222.367,330.804 224.024,330.954 224.375 C 331.017 224.520,331.208 224.639,331.380 224.639 C 331.552 224.639,332.252 225.258,332.936 226.015 C 333.619 226.772,334.269 227.269,334.379 227.119 C 336.122 224.757,341.466 224.554,343.837 226.761 C 344.644 227.512,345.964 226.923,345.964 225.812 C 345.964 225.581,346.185 225.307,346.454 225.203 C 347.049 224.975,351.742 218.792,351.742 218.237 C 351.742 218.020,351.875 217.842,352.039 217.842 C 352.407 217.842,355.820 212.687,355.820 212.130 C 355.820 211.907,355.953 211.725,356.116 211.725 C 356.476 211.725,359.218 207.053,359.218 206.440 C 359.218 206.200,359.353 205.953,359.518 205.891 C 359.919 205.739,363.636 198.281,363.636 197.627 C 363.636 197.343,363.777 197.111,363.949 197.111 C 364.121 197.111,364.367 196.634,364.495 196.050 C 364.623 195.466,365.005 194.510,365.343 193.926 C 365.681 193.341,366.149 192.175,366.383 191.334 C 366.618 190.493,366.937 189.659,367.092 189.482 C 367.248 189.304,367.380 188.922,367.386 188.632 C 367.393 188.342,367.693 187.494,368.054 186.746 C 368.416 185.998,368.720 185.157,368.731 184.877 C 368.742 184.596,369.061 183.449,369.441 182.328 C 369.820 181.206,370.266 179.677,370.431 178.929 C 370.596 178.182,371.051 176.211,371.443 174.551 C 371.834 172.890,372.079 171.456,371.986 171.363 C 371.893 171.270,371.978 170.891,372.176 170.522 C 372.692 169.558,372.122 169.135,370.921 169.592 C 370.231 169.854,369.902 169.858,369.817 169.605 C 369.751 169.406,369.562 169.244,369.396 169.244 C 369.231 169.244,369.176 169.454,369.274 169.710 M202.604 203.457 C 202.360 203.893,201.709 204.046,199.818 204.114 C 198.297 204.168,197.250 204.364,197.088 204.626 C 196.854 205.004,192.692 205.225,184.282 205.305 C 183.421 205.314,183.178 205.461,183.178 205.971 C 183.178 206.694,182.507 206.840,181.914 206.247 C 181.633 205.966,181.058 205.981,179.722 206.302 C 177.625 206.806,177.255 206.860,173.152 207.265 C 171.470 207.431,169.596 207.491,168.989 207.398 C 168.275 207.289,167.884 207.370,167.884 207.628 C 167.884 207.847,168.037 207.932,168.224 207.816 C 168.411 207.701,168.564 207.751,168.564 207.927 C 168.564 208.636,165.560 208.925,164.913 208.277 C 164.621 207.985,164.266 207.995,163.491 208.316 C 162.173 208.862,160.706 208.587,157.039 207.109 C 155.462 206.473,154.112 206.012,154.039 206.086 C 153.748 206.377,161.256 209.059,164.548 209.839 C 170.405 211.227,173.191 211.486,180.233 211.295 C 187.029 211.111,189.266 210.795,196.829 208.949 L 201.134 207.898 202.140 205.393 C 203.103 202.994,203.283 202.244,202.604 203.457 M181.818 278.845 L 181.818 310.960 190.484 310.960 L 199.150 310.960 199.150 300.646 L 199.150 290.333 203.314 290.128 C 217.680 289.420,224.299 282.753,224.299 268.989 C 224.299 251.853,216.232 246.762,189.040 246.736 L 181.818 246.729 181.818 278.845 M231.436 278.845 L 231.436 310.960 240.102 310.960 L 248.768 310.960 248.768 300.646 L 248.768 290.333 252.931 290.128 C 267.298 289.420,273.917 282.753,273.917 268.989 C 273.917 251.853,265.850 246.762,238.658 246.736 L 231.436 246.729 231.436 278.845 M133.638 278.593 C 129.483 295.931,126.083 310.306,126.083 310.538 C 126.083 310.863,128.141 310.960,135.062 310.960 L 144.041 310.960 144.226 310.025 C 144.327 309.511,144.661 307.676,144.968 305.947 L 145.525 302.804 151.091 302.804 C 157.475 302.804,156.682 302.287,157.349 306.882 C 157.553 308.284,157.792 309.775,157.881 310.195 L 158.042 310.960 167.041 310.960 C 174.484 310.960,176.041 310.879,176.041 310.489 C 176.041 310.230,173.125 296.275,169.562 279.478 C 165.999 262.681,162.998 248.517,162.893 248.003 L 162.702 247.069 151.947 247.069 L 141.192 247.069 133.638 278.593 M202.650 261.462 C 209.658 264.390,206.980 275.616,199.274 275.616 C 199.206 275.616,199.150 272.328,199.150 268.309 L 199.150 261.003 200.351 261.003 C 201.011 261.003,202.046 261.209,202.650 261.462 M252.268 261.462 C 259.275 264.390,256.598 275.616,248.892 275.616 C 248.824 275.616,248.768 272.328,248.768 268.309 L 248.768 261.003 249.968 261.003 C 250.629 261.003,251.663 261.209,252.268 261.462 M153.452 279.270 C 154.100 284.550,154.630 288.947,154.630 289.040 C 154.630 289.134,153.101 289.210,151.232 289.210 C 149.363 289.210,147.833 289.144,147.833 289.064 C 147.833 288.984,148.437 285.122,149.175 280.483 C 149.913 275.843,150.685 270.748,150.890 269.159 C 151.587 263.754,151.665 263.584,151.984 266.780 C 152.143 268.369,152.804 273.989,153.452 279.270 " stroke="none" fill="#409ee3" fill-rule="evenodd"></path><path id="path4" d="M237.943 27.048 C 228.196 28.228,208.877 33.181,208.397 34.623 C 208.334 34.812,208.038 34.872,207.739 34.757 C 207.380 34.620,207.278 34.683,207.439 34.943 C 207.593 35.192,207.505 35.268,207.198 35.151 C 206.932 35.049,206.502 35.177,206.243 35.437 C 205.984 35.696,205.560 35.838,205.302 35.752 C 205.042 35.665,204.929 35.751,205.048 35.944 C 205.284 36.325,204.355 36.810,203.913 36.537 C 203.763 36.444,203.552 36.596,203.445 36.875 C 203.338 37.155,203.083 37.383,202.879 37.383 C 202.675 37.383,202.602 37.232,202.716 37.047 C 202.841 36.846,202.685 36.803,202.329 36.940 C 201.963 37.080,201.891 37.220,202.141 37.304 C 202.365 37.379,202.549 37.823,202.549 38.291 C 202.549 38.888,203.410 40.071,205.437 42.256 C 207.025 43.968,208.325 45.561,208.325 45.794 C 208.326 46.028,208.441 46.222,208.581 46.225 C 209.038 46.234,212.065 49.119,212.065 49.544 C 212.065 50.116,211.405 50.064,211.178 49.474 C 211.076 49.208,210.767 48.904,210.491 48.798 C 209.795 48.531,210.270 49.242,211.455 50.239 C 212.343 50.986,212.814 51.950,212.065 51.487 C 211.128 50.908,212.290 52.929,213.424 53.852 C 215.091 55.208,217.838 58.293,217.840 58.811 C 217.841 59.100,218.033 59.543,218.267 59.795 C 218.611 60.166,218.600 60.200,218.208 59.976 C 217.217 59.411,218.672 60.994,222.260 64.387 C 227.145 69.006,230.457 72.341,229.227 71.402 C 227.803 70.315,227.631 71.282,228.943 72.998 C 229.472 73.690,229.871 74.358,229.830 74.482 C 229.790 74.605,230.222 74.869,230.792 75.068 C 231.361 75.266,231.744 75.562,231.643 75.725 C 231.543 75.888,231.895 76.439,232.427 76.948 C 233.123 77.615,233.455 78.335,233.612 79.515 C 233.741 80.490,234.033 81.235,234.332 81.349 C 234.608 81.455,234.834 81.718,234.834 81.934 C 234.834 82.208,234.655 82.191,234.240 81.876 C 233.735 81.495,233.709 81.498,234.066 81.899 C 234.514 82.402,235.633 82.710,235.350 82.253 C 235.089 81.831,236.544 80.170,236.953 80.423 C 237.158 80.550,237.221 80.491,237.095 80.287 C 236.972 80.089,237.369 79.505,237.977 78.991 C 238.585 78.476,239.048 77.940,239.007 77.799 C 238.965 77.658,240.418 76.186,242.236 74.528 C 251.443 66.128,257.266 61.972,267.215 56.699 C 269.686 55.389,271.421 54.410,271.070 54.522 C 270.719 54.635,270.222 54.553,269.965 54.340 C 269.382 53.856,269.348 53.229,269.924 53.561 C 270.157 53.695,269.978 53.398,269.524 52.901 C 268.525 51.804,268.114 51.689,269.021 52.761 L 269.669 53.526 268.912 52.886 C 268.496 52.534,268.234 52.119,268.329 51.964 C 268.425 51.810,268.011 51.257,267.409 50.735 C 264.923 48.580,260.651 44.022,260.786 43.669 C 260.866 43.460,260.490 42.992,259.949 42.630 C 259.408 42.268,258.965 41.749,258.964 41.478 C 258.964 41.206,258.466 40.457,257.859 39.812 C 257.251 39.168,256.984 38.760,257.264 38.907 C 257.545 39.054,257.301 38.683,256.724 38.085 C 256.146 37.486,255.256 36.950,254.746 36.894 C 253.703 36.779,252.927 36.170,253.321 35.775 C 253.464 35.632,253.797 35.810,254.060 36.169 C 254.323 36.529,254.620 36.742,254.720 36.642 C 255.080 36.283,254.472 35.489,252.815 34.155 C 249.862 31.776,249.108 31.047,249.092 30.556 C 249.083 30.292,248.226 29.396,247.187 28.564 C 245.576 27.275,245.390 27.016,245.928 26.804 C 246.964 26.396,242.096 26.545,237.943 27.048 M226.024 69.190 C 226.477 69.675,227.154 70.224,227.528 70.410 C 227.901 70.597,227.644 70.201,226.956 69.529 C 225.523 68.133,224.783 67.863,226.024 69.190 M286.865 69.669 C 286.853 69.762,287.227 70.833,287.698 72.048 C 288.169 73.263,288.460 73.798,288.346 73.237 C 288.150 72.278,286.915 69.301,286.865 69.669 M288.668 74.818 C 292.705 89.378,293.097 92.061,293.109 105.183 C 293.117 114.003,293.017 116.235,292.500 118.895 C 291.756 122.719,291.154 122.165,297.166 123.184 C 309.032 125.194,322.263 129.409,330.161 133.695 C 331.096 134.203,331.555 134.502,331.181 134.361 C 330.201 133.990,328.342 134.077,326.686 134.570 C 325.896 134.805,324.978 134.880,324.647 134.736 C 323.927 134.422,321.835 134.327,321.835 134.607 C 321.835 134.989,318.614 135.558,318.284 135.235 C 317.850 134.811,316.982 134.831,317.247 135.259 C 317.464 135.610,316.575 135.755,314.968 135.630 C 314.462 135.591,313.723 135.733,313.325 135.946 C 312.756 136.251,312.483 136.225,312.036 135.824 C 311.441 135.290,309.454 135.426,309.795 135.978 C 309.897 136.143,309.780 136.295,309.536 136.315 C 308.004 136.439,307.632 136.424,306.729 136.198 C 306.084 136.037,305.640 136.088,305.483 136.343 C 305.348 136.561,304.343 136.760,303.240 136.786 C 302.141 136.812,301.051 136.951,300.818 137.095 C 300.585 137.239,300.169 137.169,299.892 136.940 C 299.486 136.602,299.425 136.615,299.576 137.007 C 299.695 137.317,299.524 137.510,299.103 137.542 C 298.740 137.569,297.781 137.814,296.970 138.086 C 296.160 138.358,294.618 138.776,293.543 139.013 C 291.634 139.435,291.157 139.785,292.014 140.133 C 292.343 140.266,292.334 140.378,291.973 140.631 C 291.609 140.886,292.672 142.604,296.879 148.558 C 306.045 161.530,305.973 159.565,298.123 182.838 C 290.131 206.531,287.722 213.423,287.430 213.423 C 287.056 213.424,277.956 188.302,274.900 178.833 C 274.822 178.594,274.090 179.934,273.273 181.813 C 270.379 188.464,266.491 190.450,260.533 188.317 C 257.618 187.273,256.354 187.566,254.687 189.670 C 253.962 190.585,253.290 191.347,253.193 191.362 C 253.096 191.378,252.658 191.430,252.220 191.478 C 251.783 191.526,251.305 191.759,251.158 191.995 C 250.993 192.263,250.610 192.337,250.149 192.190 C 249.465 191.973,249.421 192.045,249.591 193.089 C 249.693 193.712,250.012 195.675,250.300 197.451 C 251.983 207.822,256.960 223.277,259.273 225.319 C 260.558 226.453,262.326 229.664,262.628 231.412 L 262.872 232.822 265.421 232.934 C 266.822 232.996,268.939 233.253,270.125 233.505 L 272.280 233.964 273.405 232.700 C 274.024 232.005,274.827 231.436,275.190 231.436 C 275.553 231.436,276.112 231.147,276.432 230.793 C 276.778 230.411,277.282 230.220,277.674 230.323 C 278.038 230.418,278.335 230.325,278.335 230.116 C 278.335 229.907,278.182 229.737,277.995 229.737 C 277.808 229.737,277.655 229.602,277.655 229.436 C 277.655 228.971,278.915 228.753,279.311 229.150 C 279.557 229.395,279.810 229.384,280.136 229.113 C 280.395 228.899,280.693 228.810,280.799 228.916 C 280.905 229.021,281.086 228.810,281.202 228.445 C 281.318 228.078,282.052 227.534,282.847 227.225 C 283.740 226.877,284.660 226.155,285.282 225.313 C 285.832 224.568,286.443 223.991,286.641 224.030 C 287.572 224.212,288.870 223.573,288.870 222.933 C 288.870 222.493,289.099 222.260,289.530 222.260 C 290.320 222.260,290.748 221.709,290.147 221.466 C 289.912 221.372,290.131 221.282,290.634 221.267 C 291.137 221.253,291.649 221.078,291.772 220.880 C 292.077 220.386,293.616 219.767,294.647 219.723 C 295.811 219.674,297.026 219.222,297.026 218.839 C 297.026 218.664,297.256 218.522,297.536 218.522 C 297.816 218.522,298.046 218.369,298.046 218.182 C 298.046 217.995,298.366 217.842,298.757 217.842 C 299.192 217.842,299.541 217.567,299.654 217.135 C 299.781 216.647,300.035 216.479,300.472 216.593 C 300.820 216.685,301.020 216.620,300.915 216.451 C 300.810 216.281,300.961 216.143,301.250 216.143 C 301.588 216.143,301.747 215.879,301.695 215.404 C 301.624 214.758,301.804 214.651,303.126 214.555 C 305.019 214.418,305.610 213.908,304.675 213.218 C 303.720 212.514,304.516 212.086,306.330 212.328 C 307.613 212.499,307.692 212.466,307.260 211.943 C 306.661 211.218,307.688 209.890,308.652 210.143 C 308.987 210.230,309.360 210.139,309.483 209.941 C 309.623 209.714,309.541 209.682,309.261 209.856 C 308.958 210.043,308.898 209.998,309.073 209.715 C 309.214 209.486,309.536 209.379,309.788 209.475 C 310.041 209.572,310.334 209.372,310.444 209.025 C 310.553 208.681,310.959 208.317,311.345 208.216 C 311.732 208.115,311.954 207.880,311.839 207.694 C 311.724 207.508,311.976 207.248,312.399 207.115 C 312.823 206.983,313.266 206.725,313.383 206.542 C 313.521 206.327,313.806 206.324,314.181 206.534 C 314.891 206.932,316.682 206.673,316.026 206.267 C 315.675 206.051,315.678 205.896,316.040 205.459 C 316.385 205.043,316.596 205.009,316.960 205.312 C 317.337 205.625,317.390 205.591,317.219 205.146 C 317.101 204.839,317.169 204.588,317.370 204.588 C 317.571 204.588,317.666 204.397,317.581 204.163 C 317.351 203.531,319.543 201.189,320.365 201.189 C 320.788 201.189,321.464 200.674,322.036 199.915 C 323.172 198.409,323.928 197.784,324.322 198.028 C 324.480 198.125,325.093 197.685,325.686 197.050 C 326.626 196.041,327.404 195.670,330.246 194.873 C 330.869 194.698,330.764 194.127,330.076 193.947 C 329.688 193.846,329.788 193.778,330.364 193.752 C 330.849 193.731,331.522 193.407,331.861 193.033 C 332.199 192.659,332.796 192.341,333.188 192.327 C 333.579 192.312,333.709 192.223,333.475 192.128 C 332.800 191.856,332.982 191.334,333.753 191.334 C 334.139 191.334,334.960 190.799,335.577 190.144 C 336.194 189.490,337.025 188.955,337.423 188.955 C 338.061 188.955,338.297 188.629,338.199 187.884 C 338.184 187.763,338.529 187.573,338.968 187.463 C 339.407 187.353,339.852 186.935,339.956 186.535 C 340.101 185.981,340.326 185.853,340.895 186.002 C 343.009 186.555,340.548 185.382,337.433 184.353 C 335.490 183.710,334.244 183.245,334.664 183.319 C 335.085 183.393,335.429 183.315,335.429 183.146 C 335.429 182.976,335.201 182.838,334.923 182.838 C 334.499 182.838,334.511 182.726,334.998 182.158 C 335.318 181.784,335.890 181.477,336.269 181.476 C 337.594 181.470,340.466 177.386,339.566 176.788 C 338.403 176.016,339.391 174.002,340.932 174.002 C 341.224 174.002,341.649 173.778,341.876 173.505 C 342.236 173.071,342.402 173.081,343.179 173.589 C 343.668 173.910,343.952 173.982,343.810 173.751 C 343.658 173.505,343.839 173.021,344.248 172.583 C 344.631 172.171,344.945 171.680,344.945 171.491 C 344.945 171.295,345.120 171.322,345.353 171.555 C 345.577 171.779,345.883 171.963,346.032 171.963 C 346.473 171.963,346.343 171.014,345.879 170.848 C 345.646 170.765,345.554 170.588,345.676 170.456 C 345.971 170.138,350.515 172.363,351.519 173.318 C 351.678 173.468,353.436 173.168,355.428 172.651 C 358.936 171.740,361.407 171.174,362.107 171.121 C 362.294 171.107,362.633 170.978,362.861 170.836 C 363.088 170.693,364.082 170.671,365.070 170.786 C 366.341 170.935,366.719 170.895,366.365 170.648 C 365.675 170.168,366.151 169.790,366.924 170.204 C 367.793 170.669,369.504 170.310,369.274 169.710 C 369.176 169.454,369.231 169.244,369.396 169.244 C 369.562 169.244,369.751 169.406,369.817 169.605 C 369.902 169.859,370.220 169.859,370.894 169.602 C 371.420 169.403,371.990 169.326,372.161 169.431 C 372.713 169.773,372.494 169.227,371.616 168.076 C 371.146 167.459,370.837 166.743,370.931 166.485 C 371.334 165.379,361.507 152.911,354.806 146.026 C 350.199 141.293,343.323 135.108,340.635 133.282 C 339.986 132.841,339.541 132.394,339.646 132.288 C 339.922 132.012,337.765 130.488,337.409 130.708 C 337.245 130.809,337.153 130.689,337.205 130.442 C 337.256 130.194,337.681 129.895,338.148 129.777 C 338.713 129.634,338.365 129.549,337.105 129.522 C 329.976 129.370,325.409 123.432,327.013 116.398 C 327.141 115.837,327.163 115.567,327.063 115.798 C 326.838 116.312,324.214 114.308,324.214 113.622 C 324.214 113.373,324.073 113.169,323.901 113.169 C 323.728 113.169,322.482 112.099,321.132 110.790 C 319.781 109.482,318.469 108.411,318.217 108.411 C 317.964 108.411,317.757 108.224,317.757 107.995 C 317.757 107.766,316.725 106.513,315.463 105.211 C 314.201 103.909,313.437 103.044,313.764 103.290 C 314.261 103.663,314.359 103.657,314.359 103.252 C 314.359 102.745,312.350 100.623,311.877 100.630 C 311.548 100.635,309.261 98.661,309.261 98.372 C 309.261 98.260,308.649 97.442,307.901 96.556 C 307.154 95.669,306.539 94.800,306.535 94.626 C 306.531 94.451,305.929 93.884,305.197 93.367 C 304.323 92.748,303.831 92.117,303.760 91.524 C 303.631 90.437,302.804 90.028,302.804 91.051 C 302.804 91.440,302.651 91.759,302.464 91.759 C 302.277 91.759,302.124 91.561,302.124 91.320 C 302.124 91.078,301.436 90.205,300.595 89.380 C 299.699 88.501,299.065 87.569,299.065 87.130 C 299.065 86.711,298.605 85.994,298.020 85.502 C 297.445 85.018,297.096 84.622,297.246 84.622 C 297.395 84.622,297.189 84.392,296.788 84.111 C 296.387 83.830,295.885 83.104,295.673 82.497 C 295.416 81.763,294.368 80.658,292.544 79.198 C 290.725 77.743,289.584 76.540,289.157 75.630 C 288.802 74.875,288.582 74.509,288.668 74.818 M257.774 91.728 C 258.965 92.285,261.261 94.639,262.006 96.069 C 263.001 97.979,262.960 122.136,261.959 123.136 C 261.645 123.451,261.290 124.013,261.172 124.386 C 261.054 124.759,260.843 125.064,260.704 125.064 C 260.565 125.064,260.002 125.499,259.453 126.032 C 258.903 126.564,258.224 127.087,257.944 127.194 C 256.879 127.601,259.051 127.431,261.612 126.906 C 266.022 126.004,273.237 121.335,273.237 119.384 C 273.237 119.143,273.353 118.946,273.494 118.946 C 273.797 118.946,274.986 116.392,275.753 114.092 C 276.474 111.931,276.470 107.026,275.747 104.818 C 274.974 102.462,273.594 99.512,272.940 98.820 C 269.502 95.180,267.277 93.626,263.891 92.499 C 261.783 91.797,256.497 91.131,257.774 91.728 M326.593 116.907 C 326.593 117.281,326.540 117.587,326.476 117.587 C 326.411 117.587,326.082 117.281,325.743 116.907 C 325.146 116.248,325.150 116.228,325.861 116.228 C 326.366 116.228,326.593 116.438,326.593 116.907 M202.673 165.802 C 202.836 166.559,202.769 166.598,201.585 166.440 C 200.049 166.234,195.282 167.362,196.177 167.719 C 196.504 167.850,196.771 168.094,196.771 168.261 C 196.771 168.694,195.158 168.637,194.884 168.195 C 194.758 167.991,194.329 167.921,193.929 168.038 C 191.288 168.813,189.635 169.014,189.635 168.559 C 189.635 168.262,189.313 168.211,188.530 168.384 C 187.923 168.519,187.090 168.677,186.680 168.735 C 186.271 168.793,185.774 168.939,185.577 169.061 C 185.138 169.333,184.091 169.557,182.419 169.739 C 181.721 169.814,180.956 169.993,180.719 170.135 C 180.460 170.291,180.491 170.142,180.799 169.759 C 181.079 169.411,179.473 170.348,177.230 171.843 C 171.359 175.755,171.421 175.754,172.812 171.899 C 173.279 170.603,173.521 169.631,173.348 169.738 C 173.176 169.844,172.938 170.372,172.819 170.910 C 172.656 171.653,172.452 171.849,171.971 171.724 C 171.623 171.632,171.058 171.721,170.716 171.920 C 170.140 172.254,170.138 172.283,170.688 172.292 C 171.015 172.298,171.283 172.439,171.283 172.606 C 171.283 173.118,170.251 173.339,169.567 172.973 C 168.923 172.629,168.150 172.891,166.865 173.887 C 166.272 174.347,163.796 174.585,163.232 174.237 C 162.681 173.896,160.448 174.237,159.599 174.792 C 158.815 175.303,157.558 175.600,154.550 175.985 C 153.478 176.123,152.415 176.421,152.188 176.648 C 151.961 176.875,151.462 177.055,151.079 177.050 C 150.428 177.039,150.421 177.009,150.977 176.587 C 151.951 175.848,151.657 175.674,150.297 176.186 C 148.037 177.038,145.508 177.469,144.136 177.237 C 143.208 177.080,142.481 177.175,141.764 177.545 C 141.196 177.839,140.111 178.080,139.354 178.080 C 137.726 178.080,137.709 178.163,138.703 181.358 C 139.102 182.639,139.456 183.917,139.491 184.197 C 139.649 185.481,140.467 187.935,140.737 187.935 C 140.902 187.935,141.037 188.254,141.037 188.644 C 141.037 189.581,143.567 195.612,144.244 196.289 C 144.536 196.581,144.775 197.119,144.775 197.485 C 144.775 198.269,146.727 202.270,147.281 202.622 C 149.569 204.076,150.612 204.606,150.408 204.213 C 150.273 203.952,150.380 204.004,150.646 204.328 C 150.912 204.652,151.229 204.818,151.351 204.696 C 151.472 204.574,151.572 204.662,151.572 204.891 C 151.572 205.120,151.709 205.223,151.876 205.120 C 152.043 205.016,152.274 205.176,152.389 205.475 C 152.507 205.784,152.815 205.934,153.104 205.823 C 153.383 205.716,153.611 205.786,153.611 205.978 C 153.611 206.170,153.750 206.241,153.920 206.136 C 154.394 205.844,155.335 206.311,155.086 206.715 C 154.955 206.926,155.029 206.971,155.266 206.824 C 155.808 206.489,158.752 207.641,158.479 208.082 C 158.359 208.277,158.429 208.329,158.639 208.200 C 158.845 208.072,159.730 208.148,160.606 208.369 C 161.852 208.683,162.454 208.677,163.376 208.344 C 164.233 208.034,164.655 208.020,164.928 208.292 C 165.563 208.927,168.564 208.626,168.564 207.927 C 168.564 207.751,168.411 207.701,168.224 207.816 C 168.037 207.932,167.884 207.847,167.884 207.628 C 167.884 207.370,168.275 207.289,168.989 207.398 C 169.596 207.491,171.470 207.431,173.152 207.265 C 177.255 206.860,177.625 206.806,179.722 206.302 C 181.058 205.981,181.633 205.966,181.914 206.247 C 182.507 206.840,183.178 206.694,183.178 205.971 C 183.178 205.461,183.421 205.314,184.282 205.305 C 193.032 205.221,196.851 205.009,197.108 204.593 C 197.264 204.341,197.901 204.153,198.526 204.176 C 201.775 204.292,202.355 204.026,203.575 201.857 C 204.202 200.742,204.849 199.830,205.012 199.830 C 205.174 199.830,205.213 199.677,205.098 199.490 C 204.982 199.303,205.018 199.150,205.178 199.150 C 205.338 199.150,205.969 198.195,206.580 197.026 C 209.260 191.908,216.691 181.098,220.655 176.553 L 221.838 175.196 213.998 172.564 C 205.492 169.708,204.529 169.156,203.162 166.355 C 202.797 165.607,202.577 165.359,202.673 165.802 M371.126 166.695 C 371.138 167.115,372.440 168.711,372.620 168.527 C 372.692 168.454,372.383 167.935,371.934 167.375 C 371.484 166.814,371.121 166.508,371.126 166.695 M319.927 180.184 C 322.863 181.035,325.264 184.668,324.739 187.467 C 323.569 193.700,316.108 195.482,312.518 190.385 C 308.886 185.229,313.833 178.419,319.927 180.184 M248.768 185.770 C 248.768 187.682,249.080 187.795,251.271 186.673 L 253.119 185.726 250.944 185.026 L 248.768 184.325 248.768 185.770 M176.111 211.637 C 177.364 211.702,179.505 211.702,180.869 211.638 C 182.232 211.573,181.206 211.519,178.590 211.519 C 175.973 211.518,174.857 211.571,176.111 211.637 " stroke="none" fill="#6b7df0" fill-rule="evenodd"></path></g></svg>