<?xml version="1.0" encoding="utf-8"?>
<!-- Generator: Adobe Illustrator 21.1.0, SVG Export Plug-In . SVG Version: 6.00 Build 0)  -->
<svg version="1.1" id="Capa_1" xmlns="http://www.w3.org/2000/svg" xmlns:xlink="http://www.w3.org/1999/xlink" x="0px" y="0px"
	 viewBox="0 0 508.1 508.1" style="enable-background:new 0 0 508.1 508.1;" xml:space="preserve">
<style type="text/css">
	.st0{fill:#F6B44B;}
	.st1{fill:#FFD05C;}
	.st2{fill:#41596B;}
	.st3{fill:#334A5E;}
	.st4{fill:#2CB69A;}
	.st5{fill:#FFFFFF;}
	.st6{fill:#89D6F7;}
</style>
<path class="st0" d="M314.5,373.1c1.1,3.7,2,7.7,2.6,11.5c0.9,5.4,1.2,10.7,1.2,16.2c-0.2,25.1-10.2,50-30.2,68.9
	c-4-4-7.6-8.3-10.7-12.8c-4.5,16.1-13.3,31.2-26.5,43.7c-12.9-12.8-21.3-28.1-25.6-44.2c-3.2,4.3-6.9,8.6-11,12.5
	c-23.6-23.4-32.7-55.5-27.4-85.7c0.7-3.8,1.6-7.7,2.8-11.4c0.2,0.3,0.5,0.7,0.7,1c6.9-5.2,14.6-9.5,22.8-12.8
	c5.4-2.2,10.9-3.9,16.6-5.1c7.2-1.6,14.7-2.4,22.4-2.3c7.7,0.1,15.1,1.1,22.3,2.8c5.8,1.3,11.3,3.1,16.6,5.4
	c8.1,3.4,15.7,7.9,22.5,13.2C314.1,373.7,314.3,373.4,314.5,373.1z"/>
<path class="st1" d="M291.3,360.8c6.8,12,10.4,25.6,10.3,39.7c-0.1,15.5-4.8,30.3-13.2,42.9l-17.6-24.6l-9.5,33.4
	c-2.2,7.8-5.6,15.2-10.1,22.1c-4.3-6.9-7.5-14.4-9.7-22.2l-8.9-33.6l-18.1,24.2c-8.1-12.8-12.5-27.7-12.3-43.2
	c0.1-14.1,4-27.6,11.1-39.5c5.4-2.2,10.9-3.9,16.6-5.1c7.2-1.6,14.7-2.4,22.4-2.3s15.1,1.1,22.3,2.8
	C280.5,356.8,286,358.6,291.3,360.8z"/>
<path class="st2" d="M358.7,436.1c0.2-2.6,0.4-5.3,0.4-8c0.3-26.8-9.3-51.3-25.4-70.3c-19.4-23-48.4-37.8-81-38.1
	c-32.6-0.3-61.8,13.9-81.7,36.6c-16.4,18.6-26.5,43-26.8,69.8c0,2.7,0.1,5.4,0.2,8c-17.7-23.2-28.1-52.1-27.8-83.5
	c0.3-29.4,9.8-56.4,25.8-78.4c24.9-34.3,65.5-56.4,111.2-56c45.6,0.4,85.8,23.3,110.1,58.1c15.6,22.4,24.6,49.5,24.3,78.8
	C387.8,384.5,376.8,413.3,358.7,436.1z"/>
<path class="st3" d="M363.8,274.3c-5.6,28.8-15.5,57.1-30,83.5c-19.4-23-48.4-37.8-81-38.1c-32.6-0.3-61.8,13.9-81.7,36.6
	c-14.1-26.8-23.5-55.2-28.4-84.1c24.9-34.3,65.5-56.4,111.2-56C299.3,216.6,339.6,239.5,363.8,274.3z"/>
<path class="st4" d="M313.9,374c-11.4-8.8-24.6-15.3-39.1-18.6c-7.2-1.7-14.7-2.6-22.3-2.7c-7.7-0.1-15.2,0.7-22.4,2.3
	c-14.5,3.1-27.9,9.3-39.5,17.9c-59.7-93-58.3-213.6,3.9-305.1c10.2-15,21.9-29.1,35.4-42.4l25.9-25.4l25.4,25.9
	c13.2,13.4,24.7,27.9,34.6,43C376.2,161.6,375.3,282.2,313.9,374z"/>
<path class="st5" d="M254.7,117.9c-33.5-0.3-60.9,26.6-61.3,60.1c-0.2,16.8,6.5,32,17.4,43.1c10.9,11,26,18,42.6,18.1
	s31.9-6.4,43-17.2c11.2-10.9,18.1-26,18.2-42.8C315.1,145.6,288.2,118.2,254.7,117.9z"/>
<ellipse transform="matrix(0.7138 -0.7003 0.7003 0.7138 -52.29 229.0383)" class="st6" cx="254.1" cy="178.5" rx="40.4" ry="40.4"/>
<path class="st2" d="M253.2,276.6L253.2,276.6L253.2,276.6c-18.9,38.4-19.5,100.9-1.3,139.6l0,0
	C270.7,377.8,271.3,315.3,253.2,276.6z"/>
<path class="st3" d="M315.8,68.9l-121.4-1.2c10.2-15,21.9-29.1,35.4-42.4l25.9-25.4l25.4,25.9C294.4,39.3,306,53.7,315.8,68.9z"/>
</svg>
