<?xml version="1.0" encoding="utf-8"?>
<!-- Generator: Adobe Illustrator 21.1.0, SVG Export Plug-In . SVG Version: 6.00 Build 0)  -->
<svg version="1.1" id="Capa_1" xmlns="http://www.w3.org/2000/svg" xmlns:xlink="http://www.w3.org/1999/xlink" x="0px" y="0px"
	 viewBox="0 0 1045 1561.5" style="enable-background:new 0 0 1045 1561.5;" xml:space="preserve">
<style type="text/css">
	.st0{fill:#E5E5E5;}
	.st1{fill:#898989;}
	.st2{fill:#2EB69A;}
	.st3{font-family:'FuturaStd-Heavy';}
	.st4{font-size:124.2124px;}
	.st5{fill:#F0F7FF;}
	.st6{fill:#28937A;}
	.st7{fill:#3CDDB7;}
	.st8{fill:#B5B5B5;}
	.st9{fill:#FFFFFF;}
</style>
<g>
	<path class="st0" d="M900.2,1247.9c0-29-45.4-52.6-101.5-52.6H494.8c-13.1,0-25.3-3.6-31.9-9.5l-68.3-61.1H268.4l-68.3,61.1
		c-6.6,5.9-18.7,9.5-31.9,9.5h-42.8c-56,0-101.5,23.5-101.5,52.6v233.7c0,29,45.4,52.6,101.5,52.6h673.3c56,0,101.5-23.5,101.5-52.6
		L900.2,1247.9L900.2,1247.9z"/>
	<g>
		<path class="st1" d="M927.5,1534.1c56,0,101.5-23.5,101.5-52.6v-233.7c0-29-45.4-52.6-101.5-52.6H788.1
			c56,0,101.5,23.5,101.5,52.6v233.7c0,29-45.4,52.6-101.5,52.6H927.5L927.5,1534.1z"/>
		<path class="st1" d="M336.8,1185.8c6.6,5.9,18.7,9.5,31.9,9.5h139.5c-13.1,0-25.3-3.6-31.9-9.5l-112.6-100.7
			c-11.4-10.2-39.7-10.2-51,0l-44.2,39.6L336.8,1185.8L336.8,1185.8z"/>
	</g>
	<text transform="matrix(1 0 0 1 51.001 1403.7899)" class="st2 st3 st4">&lt;Sitios Web&gt;</text>
</g>
<g>
	<path class="st5" d="M844,1496.4c0,4.7-6.7,8.6-15,8.6H145.3c-8.3,0-15-3.8-15-8.6c0-4.7,6.7-8.6,15-8.6H829
		C837.3,1487.8,844,1491.7,844,1496.4z"/>
</g>
<path class="st2" d="M571,788.1l-155.1,55.3L410,864c-8.3,29.2-40.1,53.2-70.5,53.2V931h321.6L571,788.1z"/>
<path class="st6" d="M632.1,864l-21.7-75.8l-89.4-55.3l-89.4,55.3l-15.8,55.3H571l5.9,20.5c8.3,29.2,40.1,53.2,70.5,53.2l27.6,13.8
	l27.6-13.8C672.2,917.1,640.5,893.2,632.1,864z"/>
<path class="st2" d="M868.4,788.1h55.3c30.4,0,55.3-24.9,55.3-55.3V622.3L868.4,511.7V788.1z"/>
<path class="st7" d="M63.1,732.9c0,30.4,24.9,55.3,55.3,55.3h750c30.4,0,55.3-24.9,55.3-55.3V401.2L63.1,622.3V732.9z"/>
<path class="st6" d="M923.7,69.5h-55.3l55.3,552.8H979V124.7C979,94.3,954.1,69.5,923.7,69.5z"/>
<path class="st2" d="M923.7,124.7c0-30.4-24.9-55.3-55.3-55.3h-750c-30.4,0-55.3,24.9-55.3,55.3v497.5h860.6V567L521.1,345.9
	L923.7,124.7z"/>
<path class="st8" d="M923.7,124.7l-55.3,0c0,0-347.4,221.2-347.4,221.2S868.4,567,868.4,567l55.3,0
	C923.7,567,923.7,124.7,923.7,124.7L923.7,124.7z"/>
<path class="st0" d="M868.4,124.7l-749.8,0c0,0-0.1,442.3-0.2,442.3c0,0,750,0,750,0C868.4,567,868.4,124.7,868.4,124.7L868.4,124.7
	z"/>
<circle class="st9" cx="521.1" cy="705.2" r="27.6"/>
<path class="st6" d="M806.7,944.8H235.4c-7.6,0-13.8-6.2-13.8-13.8c0-7.6,6.2-13.8,13.8-13.8h571.3c7.6,0,13.8,6.2,13.8,13.8
	C820.5,938.6,814.3,944.8,806.7,944.8z"/>
</svg>
