<?xml version="1.0" encoding="utf-8"?>
<!-- Generator: Adobe Illustrator 21.1.0, SVG Export Plug-In . SVG Version: 6.00 Build 0)  -->
<svg version="1.1" id="Capa_1" xmlns="http://www.w3.org/2000/svg" xmlns:xlink="http://www.w3.org/1999/xlink" x="0px" y="0px"
	 viewBox="0 0 1045 1561.5" style="enable-background:new 0 0 1045 1561.5;" xml:space="preserve">
<style type="text/css">
	.st0{fill:#E5E5E5;}
	.st1{fill:#898989;}
	.st2{fill:#2EB69A;}
	.st3{font-family:'FuturaStd-Heavy';}
	.st4{font-size:96.6823px;}
	.st5{fill:#F0F7FF;}
	.st6{fill:#725D57;}
	.st7{fill:#3E322E;}
	.st8{fill:#3DD8B3;}
	.st9{fill:#34AD8D;}
	.st10{fill:#53433F;}
	.st11{fill:#CDF9ED;}
	.st12{fill:#B5F4E1;}
	.st13{fill:#57D9AD;}
	.st14{fill:#FF637B;}
	.st15{fill:#E63950;}
</style>
<g>
	<path class="st0" d="M900.2,1247.9c0-29-45.4-52.6-101.5-52.6H494.8c-13.1,0-25.3-3.6-31.9-9.5l-68.3-61.1H268.4l-68.3,61.1
		c-6.6,5.9-18.7,9.5-31.9,9.5h-42.8c-56,0-101.5,23.5-101.5,52.6v233.7c0,29,45.4,52.6,101.5,52.6h673.3c56,0,101.5-23.5,101.5-52.6
		L900.2,1247.9L900.2,1247.9z"/>
	<g>
		<path class="st1" d="M927.5,1534.1c56,0,101.5-23.5,101.5-52.6v-233.7c0-29-45.4-52.6-101.5-52.6H788.1
			c56,0,101.5,23.5,101.5,52.6v233.7c0,29-45.4,52.6-101.5,52.6H927.5L927.5,1534.1z"/>
		<path class="st1" d="M336.8,1185.8c6.6,5.9,18.7,9.5,31.9,9.5h139.5c-13.1,0-25.3-3.6-31.9-9.5l-112.6-100.7
			c-11.4-10.2-39.7-10.2-51,0l-44.2,39.6L336.8,1185.8L336.8,1185.8z"/>
	</g>
	<text transform="matrix(1 0 0 1 49.001 1395.0038)" class="st2 st3 st4">&lt;Plan de negocios&gt;</text>
</g>
<g>
	<path class="st5" d="M844,1496.4c0,4.7-6.7,8.6-15,8.6H145.3c-8.3,0-15-3.8-15-8.6c0-4.7,6.7-8.6,15-8.6H829
		C837.3,1487.8,844,1491.7,844,1496.4z"/>
</g>
<path class="st6" d="M773.9,97h55.8v83.8h-55.8V97z"/>
<path class="st7" d="M801.8,97h27.9v83.8h-27.9V97z"/>
<path class="st8" d="M885.6,152.9v111.7c0,15.4-12.5,27.9-27.9,27.9H746c-15.4,0-27.9-12.5-27.9-27.9V152.9H885.6z"/>
<path class="st9" d="M885.6,152.9v111.7c0,15.4-12.5,27.9-27.9,27.9h-55.8V152.9H885.6z"/>
<path class="st6" d="M885.6,515.8v111.7L801.8,648l-83.8-20.5V515.8l83.8-20.5L885.6,515.8z"/>
<path class="st7" d="M885.6,515.8v111.7L801.8,648V495.3L885.6,515.8z"/>
<path class="st8" d="M885.6,320.4v195.4H718.1V320.4c0-15.4,12.5-27.9,27.9-27.9h111.7C873.1,292.5,885.6,305,885.6,320.4z"/>
<path class="st9" d="M885.6,320.4v195.4h-83.8V292.5h55.8C873.1,292.5,885.6,305,885.6,320.4z"/>
<path class="st10" d="M829.8,862v72.6h-55.8V862l27.9-7.4L829.8,862z"/>
<path class="st7" d="M829.8,862v72.6h-27.9v-80L829.8,862z"/>
<path class="st8" d="M885.6,627.5V716c0,54.4-19.7,105.8-55.8,145.9h-55.8c-36.1-40.2-55.8-91.5-55.8-145.9v-88.5H885.6z"/>
<path class="st9" d="M885.6,627.5V716c0,54.4-19.7,105.8-55.8,145.9h-27.9V627.5H885.6z"/>
<path class="st11" d="M662.2,93.3v897.2H48V93.3h167.5c15.4,0,27.9,12.5,27.9,27.9v55.8h223.4v-55.8c0-15.4,12.5-27.9,27.9-27.9
	H662.2z"/>
<path class="st12" d="M662.2,93.3v897.2H355.1V177.1h111.7v-55.8c0-15.4,12.5-27.9,27.9-27.9H662.2z"/>
<path class="st8" d="M434.1,93.3c-11.5-32.5-42.6-55.8-79-55.8s-67.5,23.3-79,55.8h-60.6V205h279.2V93.3H434.1z"/>
<path class="st9" d="M494.7,93.3V205H355.1V37.5c36.4,0,67.5,23.3,79,55.8H494.7z"/>
<path class="st6" d="M570.3,408.6l-39.5,39.5L494.7,412v183.9H271.4v139.6h-55.8V540h223.4V412l-36.1,36.1l-39.5-39.5l103.5-103.5
	L570.3,408.6z"/>
<path class="st10" d="M570.3,408.6l-39.5,39.5L494.7,412v183.9H355.1V540h83.8V412l-36.1,36.1l-39.5-39.5l103.5-103.5L570.3,408.6z"
	/>
<path class="st13" d="M243.4,875.1c-46.2,0-83.8-37.6-83.8-83.8s37.6-83.8,83.8-83.8s83.8,37.6,83.8,83.8S289.6,875.1,243.4,875.1z"
	/>
<path class="st14" d="M319,364.3l-39.5-39.5l-36.1,36.1l-36.1-36.1l-39.5,39.5l36.1,36.1l-36.1,36.1l39.5,39.5l36.1-36.1l36.1,36.1
	l39.5-39.5l-36.1-36.1L319,364.3z"/>
<path class="st15" d="M542.4,755.2l-39.5-39.5l-36.1,36.1l-36.1-36.1l-39.5,39.5l36.1,36.1l-36.1,36.1l39.5,39.5l36.1-36.1
	l36.1,36.1l39.5-39.5l-36.1-36.1L542.4,755.2z"/>
<path class="st6" d="M1001,348.3v139.6h-55.8V348.3c0-15.4-12.5-27.9-27.9-27.9H718.1v-55.8h199.2
	C963.4,264.5,1001,302.1,1001,348.3z"/>
<path class="st7" d="M1001,348.3v139.6h-55.8V348.3c0-15.4-12.5-27.9-27.9-27.9H801.8v-55.8h115.4
	C963.4,264.5,1001,302.1,1001,348.3z"/>
</svg>
