<?xml version="1.0" encoding="utf-8"?>
<!-- Generator: Adobe Illustrator 21.1.0, SVG Export Plug-In . SVG Version: 6.00 Build 0)  -->
<svg version="1.1" id="Capa_1" xmlns="http://www.w3.org/2000/svg" xmlns:xlink="http://www.w3.org/1999/xlink" x="0px" y="0px"
	 viewBox="0 0 1045 1561.5" style="enable-background:new 0 0 1045 1561.5;" xml:space="preserve">
<style type="text/css">
	.st0{fill:#E5E5E5;}
	.st1{fill:#898989;}
	.st2{fill:#2EB69A;}
	.st3{font-family:'FuturaStd-Heavy';}
	.st4{font-size:80px;}
	.st5{fill:#F0F7FF;}
	.st6{fill:#FFF4F4;}
	.st7{fill:#F6EFEA;}
	.st8{fill:#FDBF00;}
	.st9{fill:#FF8856;}
	.st10{fill:#4793FF;}
	.st11{fill:#525CDD;}
	.st12{fill:#EEE1DC;}
	.st13{fill:#279178;}
</style>
<g>
	<path class="st0" d="M900.2,1247.9c0-29-45.4-52.6-101.5-52.6H494.8c-13.1,0-25.3-3.6-31.9-9.5l-68.3-61.1H268.4l-68.3,61.1
		c-6.6,5.9-18.7,9.5-31.9,9.5h-42.8c-56,0-101.5,23.5-101.5,52.6v233.7c0,29,45.4,52.6,101.5,52.6h673.3c56,0,101.5-23.5,101.5-52.6
		L900.2,1247.9L900.2,1247.9z"/>
	<g>
		<path class="st1" d="M927.5,1534.1c56,0,101.5-23.5,101.5-52.6v-233.7c0-29-45.4-52.6-101.5-52.6H788.1
			c56,0,101.5,23.5,101.5,52.6v233.7c0,29-45.4,52.6-101.5,52.6H927.5L927.5,1534.1z"/>
		<path class="st1" d="M336.8,1185.8c6.6,5.9,18.7,9.5,31.9,9.5h139.5c-13.1,0-25.3-3.6-31.9-9.5l-112.6-100.7
			c-11.4-10.2-39.7-10.2-51,0l-44.2,39.6L336.8,1185.8L336.8,1185.8z"/>
	</g>
	<text transform="matrix(1 0 0 1 51 1389.4618)" class="st2 st3 st4">&lt;Aplicaciones Móviles&gt;</text>
</g>
<g>
	<path class="st5" d="M844,1496.4c0,4.7-6.7,8.6-15,8.6H145.3c-8.3,0-15-3.8-15-8.6c0-4.7,6.7-8.6,15-8.6H829
		C837.3,1487.8,844,1491.7,844,1496.4z"/>
</g>
<path class="st6" d="M307.3,107.7h430.3c29.6,0,53.8,24.9,53.8,55.2V940c0,30.4-24.2,55.2-53.8,55.2H307.3
	c-29.6,0-53.8-24.9-53.8-55.2V162.9C253.5,132.5,277.8,107.7,307.3,107.7z"/>
<path class="st7" d="M737.7,107.7H522.5v887.6h215.2c29.6,0,53.8-24.9,53.8-55.2V162.9C791.5,132.5,767.2,107.7,737.7,107.7z"/>
<path class="st2" d="M737.7,80H307.3c-44.5,0-80.7,37.2-80.7,82.9V940c0,45.7,36.2,82.9,80.7,82.9h430.3c44.5,0,80.7-37.2,80.7-82.9
	V162.9C818.3,117.2,782.2,80,737.7,80z M764.6,940c0,15.2-12.1,27.6-26.9,27.6H307.3c-14.8,0-26.9-12.4-26.9-27.6V162.9
	c0-15.2,12.1-27.6,26.9-27.6h69.8l6,11.5c14.3,27.4,40.9,43.7,71.1,43.7h132.8c30.3,0,56.8-16.4,71.1-43.7l6-11.5h73.4
	c14.8,0,26.9,12.4,26.9,27.6V940z"/>
<g>
	<path class="st8" d="M581,530.8c-6.1,0-12.3-2.1-17.3-6.4l-25.2-21.6l-32.7-3c-13-1.2-23.3-11.7-24.4-25.1l-2.9-33.6l-21.1-25.9
		c-8.4-10.3-8.4-25.2,0-35.5l21.1-25.9l2.9-33.6c1.2-13.3,11.4-23.9,24.4-25.1l32.7-3l25.2-21.6c10-8.6,24.5-8.6,34.5,0l25.2,21.6
		l32.7,3c13,1.2,23.3,11.7,24.4,25.1l2.9,33.6l21.1,25.9c8.4,10.3,8.4,25.2,0,35.5l-21.1,25.9l-2.9,33.6
		c-1.2,13.3-11.4,23.9-24.4,25.1l-32.7,3l-25.2,21.6C593.2,528.6,587.1,530.8,581,530.8L581,530.8z"/>
</g>
<path class="st9" d="M704.5,379.8l-21.1-25.9l-2.9-33.6c-1.2-13.3-11.4-23.9-24.4-25.1l-32.7-3l-25.2-21.6c-10-8.6-24.5-8.6-34.5,0
	l-25.2,21.6l-16,1.5v207.5l16,1.5l25.2,21.6c5,4.3,11.1,6.4,17.3,6.4s12.3-2.1,17.3-6.4l25.2-21.6l32.7-3
	c13-1.2,23.3-11.7,24.4-25.1l2.9-33.6l21.1-25.9C712.9,405,712.9,390,704.5,379.8L704.5,379.8z"/>
<path class="st7" d="M590.1,645.4H465c-73.4,0-133-61.3-133-136.6s59.7-136.6,133-136.6c41.7,0,80.3,19.9,105.3,53
	c6.5-1.2,13.1-1.9,19.8-1.9c59.6,0,108.1,49.8,108.1,111C698.2,595.6,649.7,645.4,590.1,645.4z"/>
<g>
	<path class="st10" d="M683.9,755.9H361.1c-14.9,0-26.9-12.4-26.9-27.6c0-15.3,12-27.6,26.9-27.6h322.7c14.9,0,26.9,12.4,26.9,27.6
		C710.8,743.5,698.7,755.9,683.9,755.9z"/>
</g>
<g>
	<path class="st10" d="M649.9,864.5H395.1c-14.9,0-26.9-12.4-26.9-27.6c0-15.3,12-27.6,26.9-27.6h254.8c14.9,0,26.9,12.4,26.9,27.6
		C676.8,852.1,664.8,864.5,649.9,864.5z"/>
</g>
<path class="st11" d="M683.9,700.6H522.5v55.2h161.4c14.9,0,26.9-12.4,26.9-27.6C710.8,713,698.7,700.6,683.9,700.6z"/>
<path class="st11" d="M649.9,809.3H522.5v55.2h127.4c14.9,0,26.9-12.4,26.9-27.6C676.8,821.6,664.8,809.3,649.9,809.3z"/>
<path class="st12" d="M590.1,423.3c-6.7,0-13.3,0.6-19.8,1.9c-12.8-17-29.2-30.5-47.8-39.7v259.9h67.6c59.6,0,108.1-49.8,108.1-111
	C698.2,473.1,649.7,423.3,590.1,423.3z"/>
<path class="st13" d="M737.7,80H522.5v110.5h64.6c30.3,0,56.8-16.4,71.1-43.7l6-11.5h73.4c14.8,0,26.9,12.4,26.9,27.6V940
	c0,15.2-12.1,27.6-26.9,27.6H522.5v55.2h215.2c44.5,0,80.7-37.2,80.7-82.9V162.9C818.3,117.2,782.2,80,737.7,80z"/>
</svg>
