<svg id="Capa_1" enable-background="new 0 0 512 512" height="512" viewBox="0 0 512 512" width="512" xmlns="http://www.w3.org/2000/svg"><g><path d="m430.372 184.005-174.372-151.553-176.096 152.907-5.565 14.757v304.272h363.322v-304.272z" fill="#90d8f9"/><path d="m115.61 241.716c0-19.907 8.815-38.174 23.045-50.53l150.061-130.3-32.716-28.434-176.096 152.907-5.565 14.758v304.272h41.271z" fill="#75cef9"/><path d="m434.347 24.756h-43.386l-4.336 3.394v80.187l2.053 6.488 45.415 40.595 3.568-2.479v-124.791z" fill="#ffe07d"/><path d="m412.144 24.756h-21.183l-4.336 3.394v80.187l2.053 6.488 23.466 20.975z" fill="#ffd064"/><path d="m447.29 0h-70.292c-3.383 0-6.125 2.742-6.125 6.125v15.899c0 3.383 2.742 6.125 6.125 6.125h70.292c3.383 0 6.125-2.742 6.125-6.125v-15.898c0-3.384-2.743-6.126-6.125-6.126z" fill="#fff0af"/><path d="m407.407 22.025v-15.899c0-3.383 2.742-6.125 6.125-6.125h-36.535c-3.383 0-6.125 2.742-6.125 6.125v15.899c0 3.383 2.742 6.125 6.125 6.125h36.535c-3.382 0-6.125-2.742-6.125-6.125z" fill="#ffe07d"/><path d="m479.989 189.935-212.301-185.547c-6.694-5.85-16.682-5.85-23.376 0l-212.301 185.547c-7.386 6.455-8.14 17.675-1.685 25.06 6.456 7.386 17.676 8.139 25.061 1.685l197.804-172.877c1.609-1.406 4.01-1.406 5.619 0l197.803 172.877c7.386 6.454 18.604 5.701 25.061-1.685 6.454-7.386 5.7-18.606-1.685-25.06z" fill="#dd636e"/><g><path d="m47.234 200.083 212.301-185.547c4.277-3.738 9.897-5.075 15.146-4.036l-6.994-6.113c-6.694-5.85-16.682-5.85-23.376 0l-212.3 185.547c-7.386 6.455-8.14 17.675-1.685 25.06 3.314 3.792 7.885 5.822 12.547 6.04-3.308-6.997-1.755-15.605 4.361-20.951z" fill="#da4a54"/></g><g><path d="m330.762 255.234c-4.204 0-7.612-3.408-7.612-7.612v-43.977c0-2.476-2.091-4.567-4.567-4.567h-17.337c-4.204 0-7.612-3.408-7.612-7.612s3.408-7.612 7.612-7.612h17.337c10.912 0 19.79 8.878 19.79 19.79v43.977c.001 4.206-3.407 7.613-7.611 7.613z" fill="#e4f6ff"/></g><g><path d="m181.238 255.234c-4.204 0-7.612-3.408-7.612-7.612v-43.977c0-10.912 8.878-19.79 19.79-19.79h17.338c4.204 0 7.612 3.408 7.612 7.612s-3.408 7.612-7.612 7.612h-17.338c-2.476 0-4.567 2.091-4.567 4.567v43.977c.001 4.204-3.407 7.611-7.611 7.611z" fill="#e4f6ff"/></g><g><path d="m459.481 512h-406.962c-4.204 0-7.612-3.408-7.612-7.612s3.408-7.612 7.612-7.612h406.962c4.204 0 7.612 3.408 7.612 7.612s-3.408 7.612-7.612 7.612z" fill="#b3e59f"/></g><path d="m206.694 184.617v13.701c0 4.764 3.862 8.626 8.626 8.626h81.359c4.764 0 8.626-3.862 8.626-8.626v-13.701c0-4.764-3.862-8.626-8.626-8.626h-81.359c-4.763-.001-8.626 3.862-8.626 8.626z" fill="#bc7f7f"/><path d="m247.543 198.317v-13.701c0-4.764 3.862-8.626 8.626-8.626h-40.848c-4.764 0-8.626 3.862-8.626 8.626v13.701c0 4.764 3.862 8.626 8.626 8.626h40.848c-4.764.001-8.626-3.861-8.626-8.626z" fill="#b06c6c"/><path d="m127.112 334.225v83.896c0 6.698 5.48 12.178 12.178 12.178h233.42c6.698 0 12.178-5.48 12.178-12.178v-83.896z" fill="#b06c6c"/><path d="m167.96 418.121v-83.896h-40.848v83.896c0 6.698 5.48 12.178 12.178 12.178h40.848c-6.697 0-12.178-5.48-12.178-12.178z" fill="#9d5e5e"/><path d="m372.71 241.534h-233.42c-6.698 0-12.178 5.48-12.178 12.178v82.543c0 6.698 5.48 12.178 12.178 12.178h233.42c6.698 0 12.178-5.48 12.178-12.178v-82.543c0-6.698-5.48-12.178-12.178-12.178z" fill="#bc7f7f"/><path d="m167.96 336.255v-82.543c0-6.698 5.48-12.178 12.178-12.178h-40.848c-6.698 0-12.178 5.48-12.178 12.178v82.543c0 6.698 5.48 12.178 12.178 12.178h40.848c-6.698 0-12.178-5.48-12.178-12.178z" fill="#b06c6c"/><path d="m330.762 244.243v-2.71h-149.524v2.71c0 14.708 11.925 26.637 26.637 26.637h96.249c14.708.001 26.638-11.925 26.638-26.637z" fill="#b06c6c"/><path d="m222.086 244.243v-2.71h-40.848v2.71c0 14.708 11.925 26.637 26.638 26.637h40.848c-14.712.001-26.638-11.929-26.638-26.637z" fill="#9d5e5e"/><path d="m188.088 320.524h-13.701c-4.764 0-8.626 3.862-8.626 8.626v38.565c0 4.764 3.862 8.626 8.626 8.626h13.701c4.764 0 8.626-3.862 8.626-8.626v-38.565c.001-4.763-3.861-8.626-8.626-8.626z" fill="#e4f6ff"/><path d="m337.612 320.524h-13.701c-4.764 0-8.626 3.862-8.626 8.626v38.565c0 4.764 3.862 8.626 8.626 8.626h13.701c4.764 0 8.626-3.862 8.626-8.626v-38.565c.001-4.763-3.862-8.626-8.626-8.626z" fill="#e4f6ff"/><g fill="#d3effb"><path d="m181.238 367.716v-38.565c0-4.464 3.391-8.136 7.738-8.581-.292-.03-.588-.045-.888-.045h-13.701c-4.764 0-8.626 3.862-8.626 8.626v38.565c0 4.764 3.862 8.626 8.626 8.626h13.701c.3 0 .596-.016.888-.045-4.347-.445-7.738-4.117-7.738-8.581z"/><path d="m330.762 367.716v-38.565c0-4.464 3.391-8.136 7.738-8.581-.292-.03-.588-.045-.888-.045h-13.701c-4.764 0-8.626 3.862-8.626 8.626v38.565c0 4.764 3.862 8.626 8.626 8.626h13.701c.3 0 .596-.016.888-.045-4.347-.445-7.738-4.117-7.738-8.581z"/></g></g></svg>